<?xml version="1.0" encoding="utf-8"?>
<!-- Generator: Adobe Illustrator 18.1.1, SVG Export Plug-In . SVG Version: 6.00 Build 0)  -->
<svg version="1.1" id="Capa_1" xmlns="http://www.w3.org/2000/svg" xmlns:xlink="http://www.w3.org/1999/xlink" x="0px" y="0px"
	 viewBox="0 0 400 400" enable-background="new 0 0 400 400" xml:space="preserve">
<rect fill="none" width="400" height="400"/>
<g>
	<g>
		<defs>
			<rect id="SVGID_1_" x="5" y="3.4" width="391.8" height="392.8"/>
		</defs>
		<clipPath id="SVGID_2_">
			<use xlink:href="#SVGID_1_"  overflow="visible"/>
		</clipPath>
		<path clip-path="url(#SVGID_2_)" fill="#FFFFFF" d="M302.5,262.8c-12.8-12.6-28.7-12.6-41.4,0c-9.7,9.6-19.4,19.2-28.9,29
			c-2.6,2.7-4.8,3.3-8,1.5c-6.3-3.4-12.9-6.2-19-9.9c-28.1-17.7-51.6-40.4-72.5-66c-10.3-12.7-19.5-26.3-26-41.6
			c-1.3-3.1-1.1-5.1,1.5-7.7c9.7-9.4,19.1-19,28.7-28.6c13.3-13.4,13.3-29-0.1-42.4c-7.6-7.7-15.1-15.1-22.7-22.8
			c-7.8-7.8-15.6-15.7-23.5-23.5c-12.8-12.5-28.7-12.5-41.4,0.1C39.4,60.5,30,70.4,20.1,79.8c-9.2,8.7-13.8,19.4-14.8,31.8
			c-1.5,20.3,3.4,39.4,10.4,58.1C30,208.3,51.9,242.6,78.3,274c35.7,42.5,78.4,76.1,128.3,100.4c22.5,10.9,45.8,19.3,71.1,20.7
			c17.4,1,32.6-3.4,44.7-17c8.3-9.3,17.7-17.8,26.5-26.6c13-13.2,13.1-29.2,0.2-42.2C333.6,293.7,318.1,278.2,302.5,262.8
			L302.5,262.8z M302.5,262.8"/>
	</g>
	<path fill="#FFFFFF" d="M286.9,197.9l30-5.1c-4.7-27.6-17.8-52.6-37.5-72.5c-20.9-20.9-47.4-34.1-76.5-38.2l-4.2,30.2
		c22.6,3.2,43.1,13.4,59.3,29.6C273.3,157.2,283.3,176.5,286.9,197.9L286.9,197.9z M286.9,197.9"/>
	<path fill="#FFFFFF" d="M333.9,67.3c-34.7-34.7-78.6-56.6-127-63.3l-4.2,30.2C244.5,40,282.5,59,312.4,88.8
		c28.4,28.4,47.1,64.3,53.8,103.8l30-5.1C388.4,141.8,366.8,100.2,333.9,67.3L333.9,67.3z M333.9,67.3"/>
</g>
</svg>
