<?xml version="1.0" encoding="utf-8"?>
<!-- Generator: Adobe Illustrator 18.1.1, SVG Export Plug-In . SVG Version: 6.00 Build 0)  -->
<svg version="1.1" id="Capa_1" xmlns="http://www.w3.org/2000/svg" xmlns:xlink="http://www.w3.org/1999/xlink" x="0px" y="0px"
	 viewBox="0 0 400 400" enable-background="new 0 0 400 400" xml:space="preserve">
<rect fill="none" width="400" height="400"/>
<g>
	<path fill="#7C7C7C" d="M297.9,3.5L247,3.4c-57.2,0-94.1,37.9-94.1,96.6v44.5h-51.2c-4.4,0-8,3.6-8,8v64.5c0,4.4,3.6,8,8,8h51.2
		v162.8c0,4.4,3.6,8,8,8h66.8c4.4,0,8-3.6,8-8V225.1h59.8c4.4,0,8-3.6,8-8l0-64.5c0-2.1-0.8-4.2-2.3-5.7c-1.5-1.5-3.5-2.3-5.7-2.3
		h-59.9v-37.8c0-18.1,4.3-27.4,28-27.4l34.3,0c4.4,0,8-3.6,8-8V11.5C305.9,7.1,302.3,3.5,297.9,3.5z"/>
</g>
</svg>
