<?xml version="1.0" encoding="utf-8"?>
<!-- Generator: Adobe Illustrator 18.1.1, SVG Export Plug-In . SVG Version: 6.00 Build 0)  -->
<svg version="1.1" id="Capa_1" xmlns="http://www.w3.org/2000/svg" xmlns:xlink="http://www.w3.org/1999/xlink" x="0px" y="0px"
	 viewBox="0 0 400 400" enable-background="new 0 0 400 400" xml:space="preserve">
<rect fill="none" width="400" height="400"/>
<path fill="#FFFFFF" d="M274.6,396.7h105.4c9.5,0,17.2-7.7,17.2-17.1v-360c0-9.5-7.7-17.1-17.2-17.1H19.5C10,2.4,2.3,10,2.3,19.5
	v360c0,9.5,7.7,17.1,17.2,17.1h193.1V243.6h-52.4v-60.1h52.4c0,0,0-27.7,0-47.2s14.3-74.9,66.3-74.9c58.6-1,57.2,2.4,57.2,2.4
	l-0.5,53.4h-38.1c0,0-23.4,3.3-23.4,25.3s0.5,41.5,0.5,41.5h58.6l-6.7,60.1H275L274.6,396.7z"/>
</svg>
