<?xml version="1.0" encoding="utf-8"?>
<!-- Generator: Adobe Illustrator 18.1.1, SVG Export Plug-In . SVG Version: 6.00 Build 0)  -->
<svg version="1.1" id="Capa_1" xmlns="http://www.w3.org/2000/svg" xmlns:xlink="http://www.w3.org/1999/xlink" x="0px" y="0px"
	 viewBox="0 0 400 400" enable-background="new 0 0 400 400" xml:space="preserve">
<rect fill="none" width="400" height="400"/>
<g>
	<path fill="#7C7C7C" d="M393.2,123.5c0,0,4.6-46.3-32-85.2c-36.6-38.9-103-33.2-103-33.2c-148.9-4.5-181.8,8-181.8,8
		S47.7,25,30.2,45.9C12.7,66.8,9,92.1,9,92.1s-5.2,8.7-4.6,108.4s8.7,123.9,8.7,123.9s10.3,32.8,36.6,50
		c26.3,17.2,58.2,19.2,58.2,19.2s10.7,2.6,92.4,2.6s107.4-4.7,107.4-4.7s36.2-5.8,57.8-32.1c21.6-26.3,24.5-38.5,27.9-94.5
		S393.2,123.5,393.2,123.5z M343.1,331.8c-14.6,18.7-44.7,26-44.7,26s-27.2,2.4-94.8,2.8c-67.5,0.4-90.4-0.8-90.4-0.8
		s-25.4-1.1-41.3-12.1c-15.9-11-25-32.3-25-32.3s-8-9.1-7.6-105.1c0.4-96,3-104.7,3-104.7s0.3-24.3,23.6-46
		c23.2-21.5,88.7-18.8,88.7-18.8s43.9-1.2,100.5,0.1c0,0,58.8-2.5,79.6,19.4s21.2,41.2,21.2,41.2s3,50.7,3,107.1s-1.4,75.6-1.4,75.6
		S357.8,313.1,343.1,331.8z"/>
	<path fill="#7C7C7C" d="M199.3,100.3C143.9,100.3,99,145.2,99,200.5c0,55.4,44.9,100.3,100.3,100.3s100.3-44.9,100.3-100.3
		C299.5,145.2,254.6,100.3,199.3,100.3z M200,265.4c-35.9,0-64.9-29.1-64.9-64.9s29.1-64.9,64.9-64.9s64.9,29.1,64.9,64.9
		S235.8,265.4,200,265.4z"/>
	<circle fill="#7C7C7C" cx="303.8" cy="97.1" r="24.2"/>
</g>
</svg>
