<?xml version="1.0" encoding="utf-8"?>
<!-- Generator: Adobe Illustrator 18.1.1, SVG Export Plug-In . SVG Version: 6.00 Build 0)  -->
<svg version="1.1" id="Capa_1" xmlns="http://www.w3.org/2000/svg" xmlns:xlink="http://www.w3.org/1999/xlink" x="0px" y="0px"
	 viewBox="0 0 400 400" enable-background="new 0 0 400 400" xml:space="preserve">
<rect fill="none" width="400" height="400"/>
<g>
	<path fill="#FFFFFF" d="M393.8,123.8c0,0,4.6-46.4-32.1-85.3C325-0.5,258.6,5.2,258.6,5.2c-149.1-4.5-182.1,8-182.1,8
		S47.8,25.2,30.3,46.1C12.7,67,9.1,92.3,9.1,92.3S3.9,101,4.4,200.9s8.7,124,8.7,124s10.4,32.8,36.7,50.1
		c26.3,17.3,58.2,19.3,58.2,19.3s10.7,2.6,92.5,2.6s107.5-4.7,107.5-4.7s36.2-5.8,57.8-32.1c21.6-26.3,24.5-38.6,28-94.7
		C397.4,209.3,393.8,123.8,393.8,123.8z M343.6,332.3c-14.7,18.7-44.8,26.1-44.8,26.1s-27.3,2.4-94.9,2.9
		c-67.6,0.4-90.5-0.8-90.5-0.8S88,359.3,72,348.3C56.1,337.2,47,316,47,316s-8-9.1-7.6-105.2s3-104.9,3-104.9s0.3-24.3,23.7-46
		c23.2-21.5,88.8-18.8,88.8-18.8s44-1.2,100.6,0.1c0,0,58.9-2.5,79.7,19.4s21.2,41.3,21.2,41.3s3,50.8,3,107.2s-1.4,75.7-1.4,75.7
		S358.3,313.6,343.6,332.3z"/>
	<path fill="#FFFFFF" d="M199.6,100.6c-55.4,0-100.4,44.9-100.4,100.4c0,55.4,44.9,100.4,100.4,100.4s100.4-44.9,100.4-100.4
		C299.9,145.5,255,100.6,199.6,100.6z M200.3,265.9c-35.9,0-65-29.1-65-65s29.1-65,65-65s65,29.1,65,65S236.2,265.9,200.3,265.9z"/>
	<circle fill="#FFFFFF" cx="304.2" cy="97.4" r="24.2"/>
</g>
</svg>
