<?xml version="1.0" encoding="utf-8"?>
<!-- Generator: Adobe Illustrator 18.1.1, SVG Export Plug-In . SVG Version: 6.00 Build 0)  -->
<svg version="1.1" id="Capa_1" xmlns="http://www.w3.org/2000/svg" xmlns:xlink="http://www.w3.org/1999/xlink" x="0px" y="0px"
	 viewBox="0 0 400 400" enable-background="new 0 0 400 400" xml:space="preserve">
<rect fill="none" width="400" height="400"/>
<g>
	<path fill="#D11122" d="M12,354.5h377.8c5.2-0.1,9.3-4.4,9.3-9.6c0-0.9-0.2-1.8-0.4-2.7l-15-46.2c1.8,0.1,3.4,0.1,4.8,0.2
		c5.1,0.3,9.5-3.7,9.7-8.8c0.1-1.6-0.2-3.1-0.9-4.5l-18.9-39.1c5.3-1.3,9.5-2.3,12.5-2.8c5-1,8.3-5.8,7.3-10.9c-0.2-1-0.5-2-1.1-2.8
		l0,0L317.8,88.8c-2.5-4.4-8.2-6-12.6-3.4c-0.5,0.3-1.1,0.7-1.5,1.1l-105.3,93c-0.4,0-0.7-0.1-1.1-0.1H74.8c-3.8,0-7.2,2.3-8.6,5.8
		L3.4,341.6c-1.1,2.9-0.8,6.2,0.9,8.7C6,352.9,8.9,354.5,12,354.5z M220.4,342.7c20.4-12.6,56.1-33.3,84.8-39.5
		c21.6-4.6,43.7-7,65.8-7.2l15.2,46.7L220.4,342.7z M384.7,284.3c-2.6-0.1-5.7-0.2-9.2-0.2c-0.1,0-0.2,0-0.3,0
		c-24.4-0.1-48.7,2.4-72.5,7.5c-18.8,4.1-39.9,13.6-58.2,23.3c20.1-16.8,41.9-31.5,64.9-44c18.3-9.8,37.5-17.8,57.3-23.8
		L384.7,284.3z M206.6,187.9l102.6-90.6l76,132.8c-14.4,3.1-45.3,11.2-81.2,30.4c-46.6,24.9-81.1,56.5-97.3,73V187.9z M76.5,191.2
		h118.3v151.6H15.7L76.5,191.2z"/>
	<path fill="#D11122" d="M179.5,136.1h-23.8c-2.3,0-4.2-1.9-4.2-4.2v-23.8c0-2.3,1.9-4.2,4.2-4.2h23.8c2.3,0,4.2,1.9,4.2,4.2v23.8
		C183.6,134.2,181.8,136.1,179.5,136.1z"/>
	<path fill="#D11122" d="M126.8,174H103c-2.3,0-4.2-1.9-4.2-4.2l0-23.8c0-2.3,1.9-4.2,4.2-4.2h23.8c2.3,0,4.2,1.9,4.2,4.2v23.8
		C130.9,172.2,129.1,174,126.8,174z"/>
	<path fill="#D11122" d="M171.2,233h-23.8c-2.3,0-4.2-1.9-4.2-4.2v-23.8c0-2.3,1.9-4.2,4.2-4.2h23.8c2.3,0,4.2,1.9,4.2,4.2v23.8
		C175.4,231.2,173.5,233,171.2,233z"/>
	<path fill="#D11122" d="M281.1,181.8h-23.8c-2.3,0-4.2-1.9-4.2-4.2v-23.8c0-2.3,1.9-4.2,4.2-4.2h23.8c2.3,0,4.2,1.9,4.2,4.2v23.8
		C285.3,180,283.4,181.8,281.1,181.8z"/>
	<path fill="#D11122" d="M253.2,221.1h-23.8c-2.3,0-4.2-1.9-4.2-4.2v-23.8c0-2.3,1.9-4.2,4.2-4.2h23.8c2.3,0,4.2,1.9,4.2,4.2v23.8
		C257.3,219.2,255.5,221.1,253.2,221.1z"/>
	<path fill="#D11122" d="M297.2,247.6h-23.8c-2.3,0-4.2-1.9-4.2-4.2v-23.8c0-2.3,1.9-4.2,4.2-4.2h23.8c2.3,0,4.2,1.9,4.2,4.2v23.8
		C301.3,245.7,299.5,247.6,297.2,247.6z"/>
	<path fill="#D11122" d="M215.7,165.8h-23.8c-2.3,0-4.2-1.9-4.2-4.2v-23.8c0-2.3,1.9-4.2,4.2-4.2h23.8c2.3,0,4.2,1.9,4.2,4.2v23.8
		C219.8,163.9,218,165.8,215.7,165.8z"/>
	<path fill="#D11122" d="M243.1,125.2h-23.8c-2.3,0-4.2-1.9-4.2-4.2V97.3c0-2.3,1.9-4.2,4.2-4.2h23.8c2.3,0,4.2,1.9,4.2,4.2V121
		C247.2,123.3,245.4,125.2,243.1,125.2z"/>
	<path fill="#D11122" d="M192.2,78.2h-23.8c-2.3,0-4.2-1.9-4.2-4.2V50.3c0-2.3,1.9-4.2,4.2-4.2h23.8c2.3,0,4.2,1.9,4.2,4.2v23.8
		C196.4,76.4,194.5,78.2,192.2,78.2z"/>
</g>
</svg>
