<?xml version="1.0" encoding="utf-8"?>
<!-- Generator: Adobe Illustrator 18.1.1, SVG Export Plug-In . SVG Version: 6.00 Build 0)  -->
<svg version="1.1" id="Capa_1" xmlns="http://www.w3.org/2000/svg" xmlns:xlink="http://www.w3.org/1999/xlink" x="0px" y="0px"
	 viewBox="0 0 400 349" enable-background="new 0 0 400 349" xml:space="preserve">
<rect x="1.4" y="0" fill="none" width="398.6" height="348.9"/>
<g>
	<g>
		<path fill="#FFFFFF" d="M9.4,245.7h8.2v48.9H9.4V245.7z"/>
		<path fill="#FFFFFF" d="M36.3,256.1h2.1v7.6c2.3-2.6,4.7-4.5,7.1-5.7c2.5-1.3,4.9-1.9,7.5-1.9c1.3,0,2.6,0.3,3.7,0.9
			c1.1,0.6,2.1,1.4,3,2.4c0.9,1,1.5,2.2,2,3.6c0.5,1.4,0.7,2.9,0.7,4.4v27H55v-25.8c0-1.3-0.1-2.4-0.4-3.3s-0.7-1.7-1.3-2.4
			c-0.5-0.6-1.2-1.1-1.9-1.5c-0.7-0.3-1.5-0.5-2.4-0.5c-0.8,0-1.6,0.1-2.5,0.4c-0.9,0.3-1.8,0.6-2.7,1.1c-0.9,0.5-1.8,1-2.7,1.7
			c-0.9,0.7-1.8,1.4-2.6,2.2v27.9h-7.5v-36.3L36.3,256.1z"/>
		<path fill="#FFFFFF" d="M83.7,244h2.1v12.8h8.4v3.2h-8.4v26.6c0,0.6,0.1,1.1,0.3,1.6c0.2,0.5,0.5,0.9,0.8,1.3
			c0.4,0.4,0.8,0.7,1.3,0.9c0.5,0.2,1,0.3,1.6,0.3c0.8,0,1.6-0.2,2.3-0.6c0.7-0.4,1.3-0.9,1.8-1.5l1.9,1.3c-1,1.7-2.4,3.1-4,4.1
			s-3.7,1.5-6.1,1.5c-1.3,0-2.3-0.2-3.3-0.6c-0.9-0.4-1.7-1-2.3-1.8c-0.6-0.8-1-1.7-1.3-2.8s-0.4-2.3-0.4-3.6v-26.6h-6.6v-1.4
			l6.6-1.8v-10.7L83.7,244z"/>
		<path fill="#FFFFFF" d="M121.6,295.4c-2.6,0-5-0.5-7.2-1.4c-2.2-1-4.2-2.3-5.9-3.9c-1.7-1.6-3-3.6-4-5.8c-1-2.2-1.5-4.6-1.5-7.1
			c0-3,0.4-5.8,1.3-8.4s2.1-4.8,3.8-6.7c1.6-1.9,3.6-3.3,5.8-4.4c2.3-1.1,4.8-1.6,7.6-1.6c2.5,0,4.7,0.4,6.8,1.3
			c2.1,0.9,3.8,2,5.3,3.5c1.5,1.5,2.6,3.1,3.5,5.1c0.8,1.9,1.2,3.9,1.2,6h-28.1c0,2.5,0.3,4.9,1,7c0.7,2.2,1.6,4,2.7,5.6
			c1.2,1.6,2.6,2.8,4.2,3.7c1.6,0.9,3.4,1.3,5.3,1.3c1.6,0,3.2-0.3,4.7-0.8c1.5-0.5,2.9-1.2,4.1-2.1c1.2-0.9,2.3-1.8,3.1-2.9
			c0.9-1.1,1.5-2.2,1.8-3.4l2.2,1c-0.5,1.9-1.4,3.8-2.6,5.5c-1.2,1.7-2.6,3.2-4.2,4.4c-1.6,1.3-3.4,2.3-5.2,3
			C125.5,295,123.6,295.4,121.6,295.4z M129.1,269c0-1.4-0.3-2.8-0.8-4c-0.5-1.2-1.2-2.3-2.1-3.2c-0.9-0.9-1.9-1.6-3.1-2.1
			c-1.2-0.5-2.4-0.8-3.8-0.8c-1.1,0-2.2,0.3-3.2,0.8c-1,0.5-2,1.2-2.8,2.1s-1.5,2-2,3.2c-0.5,1.2-0.8,2.6-0.9,4L129.1,269z"/>
		<path fill="#FFFFFF" d="M185.6,258.8v3.2h-7.1c0.7,1,1.3,2.2,1.7,3.4c0.5,1.3,0.7,2.6,0.7,3.8c0,2-0.4,3.7-1.3,5.3s-2.1,3-3.6,4.1
			c-1.5,1.2-3.4,2-5.5,2.7c-2.1,0.6-4.5,0.9-7.1,0.9c-1,0-1.9-0.1-2.9-0.2c-1-0.1-1.9-0.3-2.6-0.6c-0.7,0.6-1.3,1.3-1.8,2
			s-0.7,1.6-0.7,2.3c0,0.8,0.4,1.4,1.2,1.8c0.8,0.4,2,0.7,3.5,0.8l13.9,0.6c2.2,0.1,4.1,0.4,5.6,0.8c1.5,0.4,2.7,1,3.6,1.7
			s1.5,1.6,1.9,2.6c0.4,1,0.6,2.1,0.6,3.3c0,2.2-0.5,4.2-1.5,6c-1,1.8-2.5,3.3-4.4,4.5c-1.9,1.3-4.3,2.2-7,2.9s-5.9,1-9.4,1
			c-3.1,0-5.8-0.2-8.2-0.6c-2.3-0.4-4.3-0.9-5.8-1.6c-1.5-0.7-2.7-1.5-3.5-2.4c-0.8-0.9-1.1-2-1.1-3.2c0-1,0.3-2,0.8-3
			c0.5-0.9,1.2-1.9,2-2.7s1.7-1.7,2.7-2.5s2-1.6,2.9-2.3c-0.7-0.2-1.3-0.5-1.9-0.8c-0.6-0.3-1.1-0.7-1.6-1.1c-0.4-0.4-0.8-0.8-1-1.3
			c-0.2-0.5-0.4-0.9-0.4-1.5c0-0.8,0.2-1.6,0.6-2.4c0.4-0.8,1-1.6,1.7-2.4c0.7-0.7,1.5-1.4,2.4-2.1c0.9-0.6,1.9-1.1,3-1.5
			c-2.5-1.1-4.5-2.6-5.9-4.5c-1.4-1.9-2.2-4.1-2.2-6.6c0-1.8,0.4-3.6,1.3-5.2c0.8-1.6,2-3.1,3.5-4.3c1.5-1.2,3.2-2.2,5.2-2.9
			c2-0.7,4.2-1.1,6.5-1.1c1.1,0,2.2,0.1,3.3,0.2c1.1,0.1,2.1,0.3,3.1,0.6c0.9,0.2,1.8,0.5,2.5,0.8c0.7,0.3,1.3,0.7,1.7,1H185.6z
			 M155.4,294.3c-0.6,0.4-1.1,0.9-1.5,1.4c-0.4,0.5-0.8,1.1-1.1,1.6c-0.3,0.6-0.5,1.1-0.7,1.7c-0.1,0.6-0.2,1.1-0.2,1.6
			c0,0.8,0.3,1.6,0.9,2.4c0.6,0.8,1.5,1.4,2.7,2c1.2,0.6,2.7,1.1,4.4,1.4s3.9,0.5,6.2,0.5c2.5,0,4.7-0.2,6.7-0.6
			c2-0.4,3.7-0.9,5-1.6c1.4-0.7,2.4-1.4,3.2-2.2c0.7-0.8,1.1-1.6,1.1-2.4c0-0.8-0.2-1.6-0.6-2.2c-0.4-0.6-1-1.1-1.9-1.5
			s-1.8-0.7-2.9-0.9c-1.2-0.2-2.5-0.3-3.9-0.3c-1.8,0-3.6,0-5.5-0.1c-1.8-0.1-3.6-0.2-5.2-0.3c-1.6-0.1-3-0.2-4.2-0.4
			C156.8,294.5,155.9,294.4,155.4,294.3z M164.7,280.4c1.1,0,2.1-0.2,3.1-0.7c1-0.5,1.8-1.1,2.6-2c0.7-0.8,1.3-1.8,1.8-2.9
			c0.4-1.1,0.7-2.3,0.7-3.6c0-1.8-0.3-3.6-0.8-5.1s-1.2-3-2-4.1c-0.9-1.2-1.9-2.1-3-2.7c-1.2-0.7-2.4-1-3.6-1
			c-1.3,0-2.3,0.3-3.3,0.8s-1.7,1.2-2.3,2.2s-1,2-1.3,3.2c-0.3,1.2-0.4,2.6-0.4,4c0,1.7,0.2,3.3,0.6,4.8c0.4,1.5,1,2.8,1.8,3.8
			c0.8,1.1,1.7,1.9,2.7,2.6S163.4,280.4,164.7,280.4z"/>
		<path fill="#FFFFFF" d="M197.9,256.1h1.1l1,7.7c0.6-1.1,1.3-2.2,2.2-3.1c0.9-0.9,1.9-1.7,2.9-2.4s2.2-1.2,3.4-1.6s2.4-0.6,3.6-0.6
			c1.1,0,2.2,0.1,3.3,0.4c1.1,0.3,2.1,0.8,3,1.4l-2.4,6.3c-0.5-0.5-1-1-1.5-1.3c-0.5-0.3-1.1-0.6-1.7-0.8c-0.6-0.2-1.1-0.3-1.7-0.4
			c-0.6,0-1.2-0.1-1.8-0.1c-0.9,0-1.8,0.1-2.7,0.4s-1.8,0.7-2.6,1.2s-1.6,1.2-2.2,2s-1.3,1.8-1.8,2.9v26.3h-7.5v-36.4L197.9,256.1z"
			/>
		<path fill="#FFFFFF" d="M248.7,294.6c-1-0.5-1.8-1.2-2.5-2.1c-0.7-0.9-1-1.9-1-3.1c-0.9,0.7-1.7,1.4-2.6,2.1
			c-0.8,0.7-1.8,1.4-2.8,1.9c-1,0.6-2.1,1-3.3,1.4s-2.6,0.6-4.2,0.6c-1.5,0-2.8-0.2-4-0.7c-1.2-0.5-2.2-1.1-3-2
			c-0.8-0.8-1.5-1.8-1.9-3c-0.5-1.2-0.7-2.4-0.7-3.7c0-1.6,0.3-3.1,1-4.4s1.5-2.5,2.6-3.5c1.1-1,2.4-1.9,3.9-2.7
			c1.5-0.8,3-1.5,4.7-2.1s3.4-1.2,5.2-1.7s3.5-0.9,5.2-1.4v-2.4c0-1.7-0.1-3.2-0.4-4.3s-0.6-2.1-1.1-2.9c-0.5-0.7-1.2-1.2-2-1.5
			s-1.7-0.5-2.9-0.5c-1.1,0-2,0.2-2.9,0.6c-0.9,0.4-1.7,1-2.3,1.7c-0.7,0.7-1.2,1.5-1.7,2.5s-0.7,1.9-0.9,3h-6.9
			c0.2-1.6,0.8-3.1,1.7-4.3c0.9-1.3,2.1-2.4,3.5-3.2c1.4-0.9,3-1.5,4.8-2c1.8-0.5,3.6-0.7,5.5-0.7c2.5,0,4.5,0.2,6.2,0.7
			c1.7,0.5,3,1.1,4,2c1,0.9,1.7,1.9,2.2,3.2s0.6,2.6,0.6,4.1v23.3c0,1.2,0.3,2.2,1,3.1c0.7,0.9,1.5,1.6,2.5,2.1H248.7z M245.2,272.6
			c-1.1,0.3-2.2,0.7-3.4,1.2s-2.3,0.9-3.4,1.5s-2.2,1.1-3.2,1.8s-1.9,1.3-2.7,2.1c-0.8,0.7-1.4,1.5-1.8,2.3
			c-0.4,0.8-0.7,1.7-0.7,2.5c0,0.9,0.2,1.8,0.5,2.6c0.3,0.8,0.8,1.5,1.4,2.2c0.6,0.6,1.2,1.1,2,1.5c0.7,0.4,1.5,0.5,2.3,0.5
			c0.8,0,1.6-0.1,2.4-0.3c0.8-0.2,1.5-0.5,2.2-0.9c0.7-0.4,1.4-0.8,2.1-1.3c0.7-0.5,1.4-1,2.2-1.6V272.6z"/>
		<path fill="#FFFFFF" d="M270.2,256.1h2.1v7.6c2.3-2.6,4.7-4.5,7.1-5.7s4.9-1.9,7.5-1.9c1.3,0,2.6,0.3,3.7,0.9
			c1.1,0.6,2.1,1.4,3,2.4c0.9,1,1.5,2.2,2,3.6s0.7,2.9,0.7,4.4v27h-7.5v-25.8c0-1.3-0.1-2.4-0.4-3.3s-0.7-1.7-1.3-2.4
			s-1.2-1.1-1.9-1.5c-0.7-0.3-1.5-0.5-2.4-0.5c-0.8,0-1.6,0.1-2.5,0.4c-0.9,0.3-1.8,0.6-2.7,1.1c-0.9,0.5-1.8,1-2.7,1.7
			c-0.9,0.7-1.8,1.4-2.6,2.2v27.9h-7.5v-36.3L270.2,256.1z"/>
		<path fill="#FFFFFF" d="M335.5,290.9c-0.9,0.7-1.8,1.3-2.8,1.9s-2.1,1-3.1,1.4c-1.1,0.4-2.2,0.7-3.3,0.9c-1.1,0.2-2.2,0.3-3.2,0.3
			c-2.2,0-4.3-0.5-6.2-1.5c-1.9-1-3.6-2.4-5-4.2c-1.4-1.7-2.6-3.8-3.4-6.1s-1.3-4.8-1.3-7.3c0-2.6,0.5-5,1.6-7.4
			c1-2.4,2.5-4.5,4.3-6.4c1.8-1.9,3.9-3.4,6.3-4.5c2.4-1.1,5-1.7,7.7-1.7c1.8,0,3.4,0.3,4.8,1s2.6,1.5,3.8,2.5v-19.9l5.3-2.1h2.2v57
			h-7.4V290.9z M335.5,268.9c0-1.5-0.3-2.8-0.8-4s-1.3-2.3-2.2-3.1c-0.9-0.9-1.9-1.5-3-2c-1.1-0.5-2.2-0.7-3.4-0.7
			c-1.5,0-2.9,0.4-4.2,1.1c-1.3,0.7-2.4,1.8-3.4,3.1c-1,1.3-1.7,2.9-2.3,4.8s-0.8,3.9-0.8,6.1c0,2.4,0.3,4.7,0.9,6.7
			c0.6,2.1,1.5,3.9,2.5,5.5s2.3,2.8,3.8,3.7c1.4,0.9,3,1.3,4.6,1.3c0.8,0,1.6-0.1,2.4-0.3c0.8-0.2,1.6-0.5,2.3-0.8
			c0.7-0.4,1.4-0.8,2-1.2c0.6-0.5,1.2-1,1.6-1.5V268.9z"/>
		<path fill="#FFFFFF" d="M373.5,295.4c-2.9,0-5.6-0.5-8-1.5c-2.4-1-4.5-2.4-6.3-4.1c-1.8-1.7-3.1-3.8-4.1-6.1
			c-1-2.3-1.5-4.8-1.5-7.5c0-2.8,0.5-5.4,1.5-7.8c1-2.4,2.4-4.6,4.1-6.4c1.8-1.8,3.9-3.2,6.3-4.3c2.4-1,5.1-1.6,8-1.6
			c2.9,0,5.5,0.5,7.9,1.4s4.5,2.3,6.3,3.9c1.8,1.7,3.1,3.6,4.1,5.9c1,2.2,1.5,4.7,1.5,7.2c0,2.8-0.5,5.5-1.5,8
			c-1,2.5-2.4,4.7-4.1,6.6c-1.8,1.9-3.9,3.4-6.3,4.5S376.4,295.4,373.5,295.4z M375,292.6c1.5,0,2.8-0.4,4.1-1.1
			c1.2-0.8,2.3-1.8,3.2-3.1s1.6-2.8,2.1-4.5c0.5-1.7,0.7-3.5,0.7-5.4c0-2.7-0.2-5.3-0.7-7.7c-0.5-2.4-1.2-4.5-2.3-6.2
			c-1.1-1.8-2.4-3.2-4.1-4.2c-1.7-1-3.8-1.5-6.2-1.5c-1.3,0-2.5,0.4-3.6,1.1c-1.2,0.7-2.2,1.7-3.1,3c-0.9,1.3-1.6,2.7-2.2,4.4
			s-0.8,3.5-0.8,5.4c0,2.8,0.3,5.3,0.9,7.7c0.6,2.4,1.4,4.5,2.5,6.3c1.1,1.8,2.5,3.2,4.1,4.3C371.1,292.1,372.9,292.6,375,292.6z"/>
	</g>
	<g>
		<path fill="#FFFFFF" d="M9.5,337.1l1.5-0.9c1,1.9,2.2,2.8,3.5,2.8c0.6,0,1.1-0.1,1.6-0.4c0.5-0.3,0.9-0.6,1.1-1.1
			c0.3-0.4,0.4-0.9,0.4-1.4c0-0.6-0.2-1.1-0.6-1.7c-0.5-0.8-1.5-1.7-2.9-2.7c-1.4-1.1-2.3-1.9-2.7-2.3c-0.6-0.8-0.9-1.7-0.9-2.6
			c0-0.7,0.2-1.4,0.5-2s0.9-1.1,1.5-1.4s1.3-0.5,2.1-0.5c0.8,0,1.6,0.2,2.3,0.6c0.7,0.4,1.4,1.1,2.2,2.2l-1.4,1.1
			c-0.6-0.9-1.2-1.4-1.6-1.7c-0.5-0.3-0.9-0.4-1.5-0.4c-0.7,0-1.3,0.2-1.7,0.6s-0.7,0.9-0.7,1.5c0,0.4,0.1,0.7,0.2,1.1
			c0.2,0.3,0.4,0.7,0.8,1.1c0.2,0.2,1,0.8,2.2,1.7c1.5,1.1,2.5,2.1,3,2.9c0.5,0.9,0.8,1.7,0.8,2.6c0,1.2-0.5,2.3-1.4,3.2
			c-0.9,0.9-2.1,1.4-3.4,1.4c-1,0-2-0.3-2.8-0.8C10.9,339.3,10.2,338.4,9.5,337.1z"/>
		<path fill="#FFFFFF" d="M28.8,327.3c1.9,0,3.6,0.7,4.8,2.1c1.2,1.3,1.7,2.8,1.7,4.6c0,1.8-0.6,3.3-1.8,4.6c-1.2,1.3-2.8,2-4.7,2
			c-1.9,0-3.5-0.7-4.8-2c-1.2-1.3-1.8-2.9-1.8-4.6c0-1.8,0.6-3.3,1.7-4.6C25.2,328,26.8,327.3,28.8,327.3z M28.8,328.9
			c-1.4,0-2.5,0.5-3.5,1.5c-1,1-1.5,2.2-1.5,3.6c0,0.9,0.2,1.8,0.7,2.6s1,1.4,1.8,1.8c0.8,0.4,1.6,0.6,2.5,0.6
			c0.9,0,1.7-0.2,2.5-0.6c0.8-0.4,1.4-1,1.8-1.8s0.7-1.6,0.7-2.6c0-1.4-0.5-2.6-1.5-3.6C31.3,329.4,30.1,328.9,28.8,328.9z"/>
		<path fill="#FFFFFF" d="M38.1,322.8h1.6v17.5h-1.6V322.8z"/>
		<path fill="#FFFFFF" d="M42.9,327.6h1.6v5.9c0,1.4,0.1,2.4,0.2,3c0.2,0.8,0.7,1.4,1.3,1.8s1.4,0.7,2.3,0.7s1.7-0.2,2.3-0.7
			s1.1-1,1.3-1.7c0.2-0.5,0.2-1.5,0.2-3.1v-5.9H54v6.2c0,1.7-0.2,3.1-0.6,3.9s-1,1.6-1.8,2.1s-1.8,0.7-3.1,0.7s-2.3-0.2-3.1-0.7
			s-1.4-1.2-1.8-2.1c-0.4-0.9-0.6-2.2-0.6-4V327.6z"/>
		<path fill="#FFFFFF" d="M69.9,330.3l-1.3,0.8c-1.1-1.5-2.6-2.2-4.6-2.2c-1.5,0-2.8,0.5-3.8,1.5c-1,1-1.5,2.2-1.5,3.6
			c0,0.9,0.2,1.8,0.7,2.6c0.5,0.8,1.1,1.4,1.9,1.9c0.8,0.4,1.7,0.7,2.7,0.7c1.9,0,3.4-0.7,4.5-2.2l1.3,0.8c-0.6,0.9-1.4,1.6-2.4,2.1
			c-1,0.5-2.2,0.8-3.5,0.8c-2,0-3.7-0.6-5-1.9c-1.3-1.3-2-2.8-2-4.6c0-1.2,0.3-2.4,0.9-3.4c0.6-1,1.5-1.9,2.5-2.5
			c1.1-0.6,2.3-0.9,3.6-0.9c0.8,0,1.6,0.1,2.4,0.4c0.8,0.3,1.4,0.6,2,1S69.5,329.6,69.9,330.3z"/>
		<path fill="#FFFFFF" d="M73.5,322.4c0.4,0,0.7,0.1,0.9,0.4c0.3,0.3,0.4,0.6,0.4,1c0,0.4-0.1,0.7-0.4,0.9s-0.6,0.4-0.9,0.4
			c-0.4,0-0.7-0.1-0.9-0.4c-0.3-0.3-0.4-0.6-0.4-0.9c0-0.4,0.1-0.7,0.4-1C72.9,322.6,73.2,322.4,73.5,322.4z M72.7,327.6h1.6v12.6
			h-1.6V327.6z"/>
		<path fill="#FFFFFF" d="M83.7,327.3c1.9,0,3.6,0.7,4.8,2.1c1.2,1.3,1.7,2.8,1.7,4.6c0,1.8-0.6,3.3-1.8,4.6c-1.2,1.3-2.8,2-4.7,2
			c-1.9,0-3.5-0.7-4.8-2c-1.2-1.3-1.8-2.9-1.8-4.6c0-1.8,0.6-3.3,1.7-4.6C80.2,328,81.8,327.3,83.7,327.3z M83.7,328.9
			c-1.4,0-2.5,0.5-3.5,1.5c-1,1-1.5,2.2-1.5,3.6c0,0.9,0.2,1.8,0.7,2.6s1,1.4,1.8,1.8c0.8,0.4,1.6,0.6,2.5,0.6
			c0.9,0,1.7-0.2,2.5-0.6c0.8-0.4,1.4-1,1.8-1.8s0.7-1.6,0.7-2.6c0-1.4-0.5-2.6-1.5-3.6C86.2,329.4,85.1,328.9,83.7,328.9z"/>
		<path fill="#FFFFFF" d="M93.3,327.6h1.6v2.3c0.7-0.9,1.4-1.5,2.2-1.9c0.8-0.4,1.6-0.6,2.6-0.6c0.9,0,1.8,0.2,2.5,0.7
			c0.7,0.5,1.3,1.1,1.6,1.9c0.3,0.8,0.5,2.1,0.5,3.8v6.5h-1.6v-6c0-1.5-0.1-2.4-0.2-2.9c-0.2-0.8-0.5-1.5-1.1-1.9s-1.2-0.6-2.1-0.6
			c-1,0-1.9,0.3-2.6,1s-1.3,1.5-1.5,2.4c-0.2,0.6-0.2,1.8-0.2,3.4v4.6h-1.6V327.6z"/>
		<path fill="#FFFFFF" d="M118.5,336.1l1.4,0.7c-0.4,0.9-1,1.6-1.6,2.1s-1.3,1-2,1.2s-1.6,0.4-2.5,0.4c-2.1,0-3.7-0.7-4.8-2
			c-1.2-1.4-1.7-2.9-1.7-4.6c0-1.6,0.5-3,1.5-4.3c1.2-1.6,2.9-2.4,5-2.4c2.2,0,3.9,0.8,5.2,2.5c0.9,1.2,1.4,2.6,1.4,4.3h-11.4
			c0,1.5,0.5,2.7,1.4,3.6c0.9,0.9,2,1.4,3.4,1.4c0.6,0,1.3-0.1,1.9-0.3c0.6-0.2,1.1-0.5,1.6-0.9C117.5,337.5,118,336.9,118.5,336.1z
			 M118.5,332.7c-0.2-0.9-0.5-1.6-0.9-2.1c-0.4-0.5-1-0.9-1.6-1.3c-0.7-0.3-1.4-0.5-2.2-0.5c-1.2,0-2.3,0.4-3.2,1.2
			c-0.7,0.6-1.1,1.5-1.5,2.6H118.5z"/>
		<path fill="#FFFFFF" d="M129.6,329l-1,1.1c-0.9-0.8-1.7-1.3-2.5-1.3c-0.5,0-1,0.2-1.4,0.5c-0.4,0.3-0.6,0.8-0.6,1.2
			c0,0.4,0.2,0.8,0.5,1.2c0.3,0.4,1,0.8,2,1.3c1.2,0.6,2,1.2,2.5,1.8c0.4,0.6,0.6,1.2,0.6,2c0,1-0.4,1.9-1.1,2.6s-1.6,1.1-2.7,1.1
			c-0.7,0-1.4-0.2-2.1-0.5s-1.2-0.8-1.6-1.3l1-1.2c0.8,0.9,1.7,1.4,2.6,1.4c0.7,0,1.2-0.2,1.7-0.6c0.5-0.4,0.7-0.9,0.7-1.5
			c0-0.5-0.2-0.9-0.5-1.2c-0.3-0.4-1-0.8-2-1.3c-1.1-0.6-1.9-1.2-2.3-1.7s-0.6-1.2-0.6-2c0-1,0.3-1.8,1-2.4s1.5-1,2.5-1
			C127.3,327.3,128.5,327.9,129.6,329z"/>
		<path fill="#FFFFFF" d="M139.1,323.2h1.7v17.1h-1.7V323.2z"/>
		<path fill="#FFFFFF" d="M144.5,327.6h1.6v2.3c0.7-0.9,1.4-1.5,2.2-1.9c0.8-0.4,1.6-0.6,2.6-0.6c0.9,0,1.8,0.2,2.5,0.7
			c0.7,0.5,1.3,1.1,1.6,1.9c0.3,0.8,0.5,2.1,0.5,3.8v6.5h-1.6v-6c0-1.5-0.1-2.4-0.2-2.9c-0.2-0.8-0.5-1.5-1.1-1.9s-1.2-0.6-2.1-0.6
			c-1,0-1.9,0.3-2.6,1s-1.3,1.5-1.5,2.4c-0.2,0.6-0.2,1.8-0.2,3.4v4.6h-1.6V327.6z"/>
		<path fill="#FFFFFF" d="M160.4,323h1.6v4.7h2.6v1.4H162v11.2h-1.6v-11.2h-2.2v-1.4h2.2V323z"/>
		<path fill="#FFFFFF" d="M177.7,336.1l1.4,0.7c-0.4,0.9-1,1.6-1.6,2.1s-1.3,1-2,1.2s-1.6,0.4-2.5,0.4c-2.1,0-3.7-0.7-4.8-2
			c-1.2-1.4-1.7-2.9-1.7-4.6c0-1.6,0.5-3,1.5-4.3c1.2-1.6,2.9-2.4,5-2.4c2.2,0,3.9,0.8,5.2,2.5c0.9,1.2,1.4,2.6,1.4,4.3h-11.4
			c0,1.5,0.5,2.7,1.4,3.6c0.9,0.9,2,1.4,3.4,1.4c0.6,0,1.3-0.1,1.9-0.3c0.6-0.2,1.1-0.5,1.6-0.9
			C176.7,337.5,177.2,336.9,177.7,336.1z M177.7,332.7c-0.2-0.9-0.5-1.6-0.9-2.1c-0.4-0.5-1-0.9-1.6-1.3c-0.7-0.3-1.4-0.5-2.2-0.5
			c-1.2,0-2.3,0.4-3.2,1.2c-0.7,0.6-1.1,1.5-1.5,2.6H177.7z"/>
		<path fill="#FFFFFF" d="M193.4,327.6h1.6v10.1c0,1.8-0.2,3.1-0.5,3.9c-0.4,1.2-1.2,2.1-2.2,2.7c-1.1,0.6-2.3,0.9-3.8,0.9
			c-1.1,0-2.1-0.2-2.9-0.5c-0.9-0.3-1.6-0.7-2.1-1.2c-0.5-0.5-1-1.3-1.5-2.3h1.8c0.5,0.8,1.1,1.5,1.9,1.9c0.8,0.4,1.7,0.6,2.8,0.6
			c1.1,0,2-0.2,2.8-0.6s1.3-0.9,1.6-1.6s0.5-1.6,0.5-3v-0.7c-0.6,0.8-1.4,1.4-2.2,1.8c-0.9,0.4-1.8,0.6-2.8,0.6
			c-1.2,0-2.3-0.3-3.3-0.9c-1-0.6-1.8-1.4-2.4-2.3c-0.6-1-0.8-2-0.8-3.2c0-1.2,0.3-2.3,0.9-3.3c0.6-1,1.4-1.8,2.4-2.4
			c1-0.6,2.1-0.9,3.2-0.9c0.9,0,1.8,0.2,2.6,0.6c0.8,0.4,1.6,1,2.4,1.9V327.6z M188.6,328.9c-0.9,0-1.8,0.2-2.6,0.7
			c-0.8,0.4-1.4,1.1-1.9,1.8c-0.4,0.8-0.7,1.6-0.7,2.5c0,1.4,0.5,2.5,1.4,3.4c0.9,0.9,2.1,1.4,3.6,1.4c1.5,0,2.7-0.4,3.6-1.3
			c0.9-0.9,1.4-2.1,1.4-3.5c0-1-0.2-1.8-0.6-2.5s-1-1.3-1.8-1.8C190.3,329.1,189.5,328.9,188.6,328.9z"/>
		<path fill="#FFFFFF" d="M197.9,327.6h1.7v1.8c0.5-0.7,1-1.3,1.6-1.6s1.1-0.5,1.7-0.5c0.4,0,0.9,0.1,1.4,0.4l-0.8,1.4
			c-0.3-0.1-0.6-0.2-0.9-0.2c-0.5,0-1.1,0.2-1.6,0.7c-0.5,0.4-0.9,1.1-1.1,2.1c-0.2,0.7-0.3,2.2-0.3,4.4v4.3h-1.7V327.6z"/>
		<path fill="#FFFFFF" d="M218.3,327.6v12.6h-1.6v-2.2c-0.7,0.8-1.4,1.5-2.3,1.9s-1.8,0.6-2.8,0.6c-1.8,0-3.3-0.6-4.6-1.9
			s-1.9-2.9-1.9-4.7c0-1.8,0.6-3.4,1.9-4.7s2.8-1.9,4.6-1.9c1,0,2,0.2,2.8,0.7s1.6,1.1,2.2,2v-2.3H218.3z M211.8,328.9
			c-0.9,0-1.7,0.2-2.5,0.7c-0.8,0.4-1.4,1.1-1.8,1.9c-0.5,0.8-0.7,1.7-0.7,2.6c0,0.9,0.2,1.7,0.7,2.6c0.5,0.8,1.1,1.4,1.8,1.9
			s1.6,0.7,2.5,0.7c0.9,0,1.7-0.2,2.5-0.7c0.8-0.4,1.4-1.1,1.8-1.8c0.4-0.8,0.6-1.6,0.6-2.6c0-1.5-0.5-2.7-1.4-3.7
			S213.2,328.9,211.8,328.9z"/>
		<path fill="#FFFFFF" d="M234.5,322.8v17.5h-1.6v-2.2c-0.7,0.8-1.4,1.5-2.3,1.9c-0.8,0.4-1.8,0.6-2.8,0.6c-1.8,0-3.3-0.6-4.6-1.9
			c-1.3-1.3-1.9-2.9-1.9-4.7c0-1.8,0.6-3.4,1.9-4.7c1.3-1.3,2.8-1.9,4.6-1.9c1,0,2,0.2,2.8,0.7c0.8,0.4,1.6,1.1,2.2,2v-7.2H234.5z
			 M228,328.9c-0.9,0-1.7,0.2-2.5,0.7c-0.8,0.4-1.4,1.1-1.8,1.9c-0.5,0.8-0.7,1.7-0.7,2.6c0,0.9,0.2,1.7,0.7,2.6
			c0.5,0.8,1.1,1.4,1.8,1.9c0.8,0.5,1.6,0.7,2.5,0.7c0.9,0,1.7-0.2,2.5-0.7c0.8-0.4,1.4-1.1,1.8-1.8s0.6-1.6,0.6-2.6
			c0-1.5-0.5-2.7-1.4-3.7S229.4,328.9,228,328.9z"/>
		<path fill="#FFFFFF" d="M250.8,327.6v12.6h-1.6v-2.2c-0.7,0.8-1.4,1.5-2.3,1.9s-1.8,0.6-2.8,0.6c-1.8,0-3.3-0.6-4.6-1.9
			s-1.9-2.9-1.9-4.7c0-1.8,0.6-3.4,1.9-4.7s2.8-1.9,4.6-1.9c1,0,2,0.2,2.8,0.7s1.6,1.1,2.2,2v-2.3H250.8z M244.3,328.9
			c-0.9,0-1.7,0.2-2.5,0.7c-0.8,0.4-1.4,1.1-1.8,1.9c-0.5,0.8-0.7,1.7-0.7,2.6c0,0.9,0.2,1.7,0.7,2.6c0.5,0.8,1.1,1.4,1.8,1.9
			s1.6,0.7,2.5,0.7c0.9,0,1.7-0.2,2.5-0.7c0.8-0.4,1.4-1.1,1.8-1.8c0.4-0.8,0.6-1.6,0.6-2.6c0-1.5-0.5-2.7-1.4-3.7
			S245.7,328.9,244.3,328.9z"/>
		<path fill="#FFFFFF" d="M260.8,329l-1,1.1c-0.9-0.8-1.7-1.3-2.5-1.3c-0.5,0-1,0.2-1.4,0.5c-0.4,0.3-0.6,0.8-0.6,1.2
			c0,0.4,0.2,0.8,0.5,1.2c0.3,0.4,1,0.8,2,1.3c1.2,0.6,2,1.2,2.5,1.8c0.4,0.6,0.6,1.2,0.6,2c0,1-0.4,1.9-1.1,2.6
			c-0.7,0.7-1.6,1.1-2.7,1.1c-0.7,0-1.4-0.2-2.1-0.5s-1.2-0.8-1.6-1.3l1-1.2c0.8,0.9,1.7,1.4,2.6,1.4c0.7,0,1.2-0.2,1.7-0.6
			s0.7-0.9,0.7-1.5c0-0.5-0.2-0.9-0.5-1.2c-0.3-0.4-1-0.8-2-1.3c-1.1-0.6-1.9-1.2-2.3-1.7s-0.6-1.2-0.6-2c0-1,0.3-1.8,1-2.4
			c0.7-0.6,1.5-1,2.5-1C258.5,327.3,259.6,327.9,260.8,329z"/>
		<path fill="#FFFFFF" d="M282.9,322.8v17.5h-1.6v-2.2c-0.7,0.8-1.4,1.5-2.3,1.9c-0.8,0.4-1.8,0.6-2.8,0.6c-1.8,0-3.3-0.6-4.6-1.9
			c-1.3-1.3-1.9-2.9-1.9-4.7c0-1.8,0.6-3.4,1.9-4.7c1.3-1.3,2.8-1.9,4.6-1.9c1,0,2,0.2,2.8,0.7c0.8,0.4,1.6,1.1,2.2,2v-7.2H282.9z
			 M276.4,328.9c-0.9,0-1.7,0.2-2.5,0.7c-0.8,0.4-1.4,1.1-1.8,1.9c-0.5,0.8-0.7,1.7-0.7,2.6c0,0.9,0.2,1.7,0.7,2.6
			c0.5,0.8,1.1,1.4,1.8,1.9c0.8,0.5,1.6,0.7,2.5,0.7c0.9,0,1.7-0.2,2.5-0.7c0.8-0.4,1.4-1.1,1.8-1.8s0.6-1.6,0.6-2.6
			c0-1.5-0.5-2.7-1.4-3.7S277.8,328.9,276.4,328.9z"/>
		<path fill="#FFFFFF" d="M297.2,336.1l1.4,0.7c-0.4,0.9-1,1.6-1.6,2.1s-1.3,1-2,1.2c-0.7,0.3-1.6,0.4-2.5,0.4c-2.1,0-3.7-0.7-4.8-2
			c-1.2-1.4-1.7-2.9-1.7-4.6c0-1.6,0.5-3,1.5-4.3c1.2-1.6,2.9-2.4,5-2.4c2.2,0,3.9,0.8,5.2,2.5c0.9,1.2,1.4,2.6,1.4,4.3h-11.4
			c0,1.5,0.5,2.7,1.4,3.6s2,1.4,3.4,1.4c0.6,0,1.3-0.1,1.9-0.3s1.1-0.5,1.6-0.9C296.2,337.5,296.7,336.9,297.2,336.1z M297.2,332.7
			c-0.2-0.9-0.5-1.6-0.9-2.1c-0.4-0.5-1-0.9-1.6-1.3c-0.7-0.3-1.4-0.5-2.2-0.5c-1.2,0-2.3,0.4-3.2,1.2c-0.7,0.6-1.1,1.5-1.5,2.6
			H297.2z"/>
		<path fill="#FFFFFF" d="M325.4,326.1l-1.3,1.3c-1-0.9-2-1.6-3.1-2.1c-1.1-0.5-2.2-0.7-3.3-0.7c-1.3,0-2.6,0.3-3.8,1
			c-1.2,0.7-2.2,1.6-2.8,2.7c-0.7,1.1-1,2.3-1,3.6c0,1.3,0.3,2.5,1,3.7c0.7,1.2,1.6,2.1,2.9,2.7s2.5,1,4,1c1.8,0,3.2-0.5,4.5-1.5
			c1.2-1,1.9-2.3,2.2-3.9H319v-1.6h7.4c0,2.6-0.8,4.7-2.4,6.3c-1.6,1.6-3.6,2.3-6.2,2.3c-3.2,0-5.7-1.1-7.5-3.2
			c-1.4-1.7-2.1-3.6-2.1-5.7c0-1.6,0.4-3.1,1.2-4.5c0.8-1.4,1.9-2.5,3.3-3.3c1.4-0.8,3-1.2,4.8-1.2c1.4,0,2.8,0.3,4.1,0.8
			S324.1,324.9,325.4,326.1z"/>
		<path fill="#FFFFFF" d="M340,336.1l1.4,0.7c-0.4,0.9-1,1.6-1.6,2.1s-1.3,1-2,1.2c-0.7,0.3-1.6,0.4-2.5,0.4c-2.1,0-3.7-0.7-4.8-2
			c-1.2-1.4-1.7-2.9-1.7-4.6c0-1.6,0.5-3,1.5-4.3c1.2-1.6,2.9-2.4,5-2.4c2.2,0,3.9,0.8,5.2,2.5c0.9,1.2,1.4,2.6,1.4,4.3h-11.4
			c0,1.5,0.5,2.7,1.4,3.6s2,1.4,3.4,1.4c0.6,0,1.3-0.1,1.9-0.3s1.1-0.5,1.6-0.9C339,337.5,339.5,336.9,340,336.1z M340,332.7
			c-0.2-0.9-0.5-1.6-0.9-2.1c-0.4-0.5-1-0.9-1.6-1.3c-0.7-0.3-1.4-0.5-2.2-0.5c-1.2,0-2.3,0.4-3.2,1.2c-0.7,0.6-1.1,1.5-1.5,2.6H340
			z"/>
		<path fill="#FFFFFF" d="M351.2,329l-1,1.1c-0.9-0.8-1.7-1.3-2.5-1.3c-0.5,0-1,0.2-1.4,0.5c-0.4,0.3-0.6,0.8-0.6,1.2
			c0,0.4,0.2,0.8,0.5,1.2c0.3,0.4,1,0.8,2,1.3c1.2,0.6,2,1.2,2.5,1.8c0.4,0.6,0.6,1.2,0.6,2c0,1-0.4,1.9-1.1,2.6
			c-0.7,0.7-1.6,1.1-2.7,1.1c-0.7,0-1.4-0.2-2.1-0.5s-1.2-0.8-1.6-1.3l1-1.2c0.8,0.9,1.7,1.4,2.6,1.4c0.7,0,1.2-0.2,1.7-0.6
			s0.7-0.9,0.7-1.5c0-0.5-0.2-0.9-0.5-1.2c-0.3-0.4-1-0.8-2-1.3c-1.1-0.6-1.9-1.2-2.3-1.7s-0.6-1.2-0.6-2c0-1,0.3-1.8,1-2.4
			c0.7-0.6,1.5-1,2.5-1C348.8,327.3,350,327.9,351.2,329z"/>
		<path fill="#FFFFFF" d="M355.5,323h1.6v4.7h2.6v1.4h-2.6v11.2h-1.6v-11.2h-2.2v-1.4h2.2V323z"/>
		<path fill="#FFFFFF" d="M362.7,322.4c0.4,0,0.7,0.1,0.9,0.4c0.3,0.3,0.4,0.6,0.4,1c0,0.4-0.1,0.7-0.4,0.9s-0.6,0.4-0.9,0.4
			c-0.4,0-0.7-0.1-0.9-0.4c-0.3-0.3-0.4-0.6-0.4-0.9c0-0.4,0.1-0.7,0.4-1C362,322.6,362.3,322.4,362.7,322.4z M361.9,327.6h1.6v12.6
			h-1.6V327.6z"/>
		<path fill="#FFFFFF" d="M372.8,327.3c1.9,0,3.6,0.7,4.8,2.1c1.2,1.3,1.7,2.8,1.7,4.6c0,1.8-0.6,3.3-1.8,4.6c-1.2,1.3-2.8,2-4.7,2
			c-1.9,0-3.5-0.7-4.8-2c-1.2-1.3-1.8-2.9-1.8-4.6c0-1.8,0.6-3.3,1.7-4.6C369.3,328,370.9,327.3,372.8,327.3z M372.8,328.9
			c-1.4,0-2.5,0.5-3.5,1.5c-1,1-1.5,2.2-1.5,3.6c0,0.9,0.2,1.8,0.7,2.6c0.4,0.8,1,1.4,1.8,1.8s1.6,0.6,2.5,0.6s1.7-0.2,2.5-0.6
			s1.4-1,1.8-1.8c0.4-0.8,0.7-1.6,0.7-2.6c0-1.4-0.5-2.6-1.5-3.6C375.3,329.4,374.2,328.9,372.8,328.9z M373.6,321.7h2.5l-3.4,3.6
			h-1.6L373.6,321.7z"/>
		<path fill="#FFFFFF" d="M382.4,327.6h1.6v2.3c0.7-0.9,1.4-1.5,2.2-1.9c0.8-0.4,1.6-0.6,2.6-0.6c0.9,0,1.8,0.2,2.5,0.7
			c0.7,0.5,1.3,1.1,1.6,1.9c0.3,0.8,0.5,2.1,0.5,3.8v6.5h-1.6v-6c0-1.5-0.1-2.4-0.2-2.9c-0.2-0.8-0.5-1.5-1.1-1.9s-1.2-0.6-2.1-0.6
			c-1,0-1.9,0.3-2.6,1s-1.3,1.5-1.5,2.4c-0.2,0.6-0.2,1.8-0.2,3.4v4.6h-1.6V327.6z"/>
	</g>
	<path fill="#0BB7D5" d="M144.4,200.5c0.5-0.9,0.8-1.9,0.8-3v-0.1c0-2-0.5-3.9-1.5-5.6c-0.8-1.5-1.3-3.3-1.3-5.1
		c0-6.2,5.2-11.1,11.5-10.7c5.3,0.4,9.6,4.7,9.9,10c0.1,2.2-0.4,4.3-1.4,6c-0.7,1.3-1.1,2.7-1.1,4.2v1.3c0,3.1,2.5,5.6,5.6,5.6h15.6
		h8.1v-7.9v-14.9c0-5.1,3.7-8.6,8.8-8.6c2.3,0,6.1,1.9,6.1,1.9c1.1,0.5,2.4,0.8,3.7,0.8c4.9,0,8.8-4.1,8.5-9.1
		c-0.3-4.2-3.6-7.5-7.8-7.9c-1.5-0.1-3,0.2-4.3,0.8c-1.7,1.1-4.9,2-7,1.9c-4.5,0-8.1-3.6-8.1-8.1v-12.4v-11.2h-8.1h-14.9
		c-5.1,0-8.6-3.7-8.6-8.8c0-2.3,1.9-6.1,1.9-6.1c0.5-1.1,0.8-2.4,0.8-3.7c0-4.9-4.1-8.8-9.1-8.5c-4.2,0.3-7.5,3.6-7.9,7.8
		c-0.1,1.5,0.2,3,0.8,4.3c1.1,1.7,2,4.9,1.9,7c0,4.5-3.6,8.1-8.1,8.1H127h-11.1l0,11.2v12.6c0,3.1,2.5,5.7,5.7,5.7h0.1
		c2,0,3.9-0.5,5.6-1.5c1.5-0.8,3.3-1.3,5.1-1.3c6.2,0,11.1,5.2,10.7,11.5c-0.4,5.3-4.7,9.6-10,9.9c-2.2,0.1-4.3-0.4-6-1.4
		c-1.3-0.7-2.7-1.1-4.2-1.1h-1.3c-1.6,0-3,0.6-4,1.6l9.2,10.7l11,9.5L144.4,200.5z"/>
	<path fill="#FFCF00" d="M270.5,190.7v-11c0-3.1,2.5-5.6,5.6-5.6h1.3c1.5,0,2.9,0.4,4.2,1.1c0.9,0.5,1.9,0.9,3,1.2l-8.9,11.2
		L270.5,190.7z"/>
	<path fill="#D11122" d="M307.4,101.5c-3.8,0.7-6.7,3.8-7,7.7c-0.1,1.5,0.2,3,0.8,4.3c1,1.7,2,4.9,1.9,7c0,4.5-3.6,8.1-8.1,8.1
		h-12.4h-12v11.2v12.6c0,3.1,2.5,5.7,5.7,5.7h0.1c2,0,3.9-0.5,5.6-1.5c1.5-0.8,3.3-1.3,5.1-1.3c3.5,0,6.5,1.6,8.5,4.2l5.3-12.8
		l5.2-18.1l1.4-15.4V101.5z"/>
	<path fill="#DFDFDF" d="M190.7,214.7v-9.1h-8.1h-14.9c-5.1,0-8.6-3.7-8.6-8.8c0-2.3,1.9-6.1,1.9-6.1c0.5-1.1,0.8-2.4,0.8-3.7
		c0-4.9-4.1-8.8-9.1-8.5c-4.2,0.3-7.5,3.6-7.9,7.8c-0.1,1.5,0.2,3,0.8,4.3c1.1,1.7,2,4.9,1.9,7c0,1.6-0.4,3-1.2,4.2l14.8,7.7l15,4.2
		l12.9,2.7L190.7,214.7z"/>
	<path fill="#77D20B" d="M249.3,205.6h-4.6c-5.1,0-8.6-3.7-8.6-8.8c0-2.3,1.9-6.1,1.9-6.1c0.5-1.1,0.8-2.4,0.8-3.7
		c0-4.9-4.1-8.8-9.1-8.5c-4.2,0.3-7.5,3.6-7.9,7.8c-0.1,1.5,0.2,3,0.8,4.3c1.1,1.7,2,4.9,1.9,7c0,4.5-3.6,8.1-8.1,8.1h-12.4H193v9.9
		l5.5,1.6l15.7-0.9l26-6.6L249.3,205.6z"/>
	<path fill="#FFCF00" d="M256.8,126.2h-12.4c-4.5,0-8.1,3.6-8.1,8.1c0,2.1,0.9,5.3,1.9,7c0.6,1.3,0.9,2.7,0.8,4.3
		c-0.3,4.2-3.7,7.5-7.9,7.8c-5,0.3-9.1-3.6-9.1-8.5c0-1.3,0.3-2.6,0.8-3.7c0,0,1.9-3.8,1.9-6.1c0-5.1-3.6-8.8-8.6-8.8h-14.9l-8.3,0
		v-6.8v-15.6c0-3.1,2.5-5.6,5.6-5.6h1.3c1.5,0,2.9,0.4,4.2,1.1c1.8,1,3.8,1.6,6,1.4c5.3-0.3,9.6-4.6,10-9.9
		c0.4-6.3-4.5-11.5-10.7-11.5c-1.8,0-3.6,0.5-5.1,1.3c-1.7,0.9-3.7,1.5-5.6,1.5h-0.1c-3.1,0-5.7-2.5-5.7-5.7V63.8V51.4h10.8h12.4
		c4.5,0,8.1-3.6,8.1-8.1c0-2.1-0.9-5.3-1.9-7c-0.6-1.3-0.9-2.7-0.8-4.3c0.3-4.2,3.7-7.5,7.9-7.8c5-0.3,9.1,3.6,9.1,8.5
		c0,1.3-0.3,2.6-0.8,3.7c0,0-1.9,3.8-1.9,6.1c0,5.1,3.6,8.8,8.6,8.8h14.9h8.9v10.1v15.6c0,3.1-2.5,5.6-5.6,5.6h-1.3
		c-1.5,0-2.9-0.4-4.2-1.1c-1.8-1-3.8-1.6-6-1.4c-5.3,0.3-9.6,4.6-10,9.9c-0.4,6.3,4.5,11.5,10.7,11.5c1.8,0,3.6-0.5,5.1-1.3
		c1.7-0.9,3.7-1.5,5.6-1.5h0.1c3.1,0,5.7,2.5,5.7,5.7V117v9.1L256.8,126.2z"/>
	<path fill="#D11122" d="M95.8,99.2c0.3,0,0.5,0.1,0.8,0.1c1.5,0.1,3-0.2,4.3-0.8c1.7-1.1,4.9-2,7-1.9c4.5,0,8.1,3.6,8.1,8.1V117
		v9.1H127h12.6c3.1,0,5.7-2.5,5.7-5.7v-0.1c0-2-0.5-3.9-1.5-5.6c-0.8-1.5-1.3-3.3-1.3-5.1c0-6.2,5.2-11.1,11.5-10.7
		c5.3,0.4,9.6,4.7,9.9,10c0.1,2.2-0.4,4.3-1.4,6c-0.7,1.3-1.1,2.7-1.1,4.2v1.3c0,3.1,2.5,5.6,5.6,5.6h15.6h8v-6.8v-14.9
		c0-5.1,3.7-8.6,8.8-8.6c2.3,0,6.1,1.9,6.1,1.9c1.1,0.5,2.4,0.8,3.7,0.8c4.9,0,8.8-4.1,8.5-9.1c-0.3-4.2-3.6-7.5-7.8-7.9
		c-1.5-0.1-3,0.2-4.3,0.8c-1.7,1-4.9,2-7,1.9c-4.5,0-8.1-3.6-8.1-8.1V63.8V51.1h-10.9h-12.6c-3.1,0-5.7,2.5-5.7,5.7v0.1
		c0,2,0.5,3.9,1.5,5.6c0.8,1.5,1.3,3.3,1.3,5.1c0,6.2-5.2,11.1-11.5,10.7c-5.3-0.4-9.6-4.7-9.9-10c-0.1-2.2,0.4-4.3,1.4-6
		c0.7-1.3,1.1-2.7,1.1-4.2v-1.3c0-3.1-2.5-5.6-5.6-5.6h-15.6h-8.2v10.4v14.9c0,5.1-3.7,8.6-8.8,8.6c-2.3,0-6.1-1.9-6.1-1.9
		c-0.7-0.4-1.5-0.6-2.3-0.7L96.8,91L95.8,99.2z"/>
	<path fill="#CC0ED7" d="M293.8,161.1c-1.4-2-3.7-3.4-6.3-3.6c-1.5-0.1-3,0.2-4.3,0.8c-1.7,1.1-4.9,2-7,1.9c-4.5,0-8.1-3.6-8.1-8.1
		v-12.4v-11.2h-11.4h-12.6c-3.1,0-5.7,2.5-5.7,5.7v0.1c0,2,0.5,3.9,1.5,5.6c0.8,1.5,1.3,3.3,1.3,5.1c0,6.2-5.2,11.1-11.5,10.7
		c-5.3-0.4-9.6-4.7-9.9-10c-0.1-2.2,0.4-4.3,1.4-6c0.7-1.3,1.1-2.7,1.1-4.2v-1.3c0-3.1-2.5-5.6-5.6-5.6h-15.6H193v11.2v12.6
		c0,3.1,2.5,5.7,5.7,5.7h0.1c2,0,3.9-0.5,5.6-1.5c1.5-0.8,3.3-1.3,5.1-1.3c6.2,0,11.1,5.2,10.7,11.5c-0.4,5.3-4.7,9.6-10,9.9
		c-2.2,0.1-4.3-0.4-6-1.4c-1.3-0.7-2.7-1.1-4.2-1.1h-1.3c-3.1,0-5.6,2.5-5.6,5.6v15.6v7.9h11.1h12.6c3.1,0,5.7-2.5,5.7-5.7v-0.1
		c0-2-0.5-3.9-1.5-5.6c-0.8-1.5-1.3-3.3-1.3-5.1c0-6.2,5.2-11.1,11.5-10.7c5.3,0.4,9.6,4.7,9.9,10c0.1,2.2-0.4,4.3-1.4,6
		c-0.7,1.3-1.1,2.7-1.1,4.2v1.3c0,3.1,2.5,5.6,5.6,5.6h8.2l10.5-5.4l5.4-5.7v-11.7c0-5.1,3.7-8.6,8.8-8.6c2.3,0,6.1,1.9,6.1,1.9
		c0.8,0.4,1.6,0.6,2.6,0.8l6-6.7L293.8,161.1z"/>
	<path fill="#D21466" d="M116.2,174c1.6-1.5,3.7-2.3,6.2-2.3c2.3,0,6.1,1.9,6.1,1.9c1.1,0.5,2.4,0.8,3.7,0.8c4.9,0,8.8-4.1,8.5-9.1
		c-0.3-4.2-3.6-7.5-7.8-7.9c-1.5-0.1-3,0.2-4.3,0.8c-1.7,1.1-4.9,2-7,1.9c-4.5,0-8.1-3.6-8.1-8.1v-12.4v-11.1H97.4l3.1,18l10.3,20.6
		L116.2,174z"/>
	<path fill="#FFCF00" d="M96.3,126.2h17.2V117v-12.6c0-3.1-2.5-5.7-5.7-5.7h-0.1c-2,0-3.9,0.5-5.6,1.5c-1.5,0.8-3.3,1.3-5.1,1.3
		c-0.6,0-1.2-0.1-1.8-0.1v9.7l-0.4,7.7L96.3,126.2z"/>
	<path fill="#FFCF00" d="M99.1,80.4c1.2,0.2,2.3,0.7,3.3,1.2c1.3,0.7,2.7,1.1,4.2,1.1h1.3c3.1,0,5.6-2.5,5.6-5.6V61.5V50.8L104.4,65
		l-3.8,8.3L99.1,80.4z"/>
	<path fill="#DFDFDF" d="M288.8,51.6h-18.2v9.9v14.9c0,5.1-3.7,8.6-8.8,8.6c-2.3,0-6.1-1.9-6.1-1.9c-1.1-0.5-2.4-0.8-3.7-0.8
		c-4.9,0-8.8,4.1-8.5,9.1c0.3,4.2,3.6,7.5,7.8,7.9c1.5,0.1,3-0.2,4.3-0.8c1.7-1.1,4.9-2,7-1.9c4.5,0,8.1,3.6,8.1,8.1V117v9.1h12
		h12.6c3.1,0,5.7-2.5,5.7-5.7v-0.1c0-2-0.5-3.9-1.5-5.6c-0.8-1.5-1.3-3.3-1.3-5.1c0-5.3,3.9-9.8,9-10.6l-2.5-14.2l-4.6-13.1
		l-7.2-14.3L288.8,51.6z"/>
	<path fill="#77D20B" d="M119.2,43.1l-3.1,5.6h8H139c5.1,0,8.6,3.7,8.6,8.8c0,2.3-1.9,6.1-1.9,6.1c-0.5,1.1-0.8,2.4-0.8,3.7
		c0,4.9,4.1,8.8,9.1,8.5c4.2-0.3,7.5-3.6,7.9-7.8c0.1-1.5-0.2-3-0.8-4.3c-1.1-1.7-2-4.9-1.9-7c0-4.5,3.6-8.1,8.1-8.1h12.4h11.2V37.8
		V25.2c0-3.1-2.5-5.7-5.7-5.7h-0.1c-2,0-3.9,0.5-5.6,1.5c-1.5,0.8-3.3,1.3-5.1,1.3c-6.2,0-11.1-5.2-10.7-11.5l-12.9,5.1l-8.5,5.3
		l-12.1,9.2l-6.3,6.2L119.2,43.1z"/>
	<path fill="#D21466" d="M166.2,10c-0.1,0.7-0.2,1.5-0.1,2.2c0.3,4.2,3.6,7.5,7.8,7.9c1.5,0.1,3-0.2,4.3-0.8c1.7-1.1,4.9-2,7-1.9
		c4.5,0,8.1,3.6,8.1,8.1v12.4V49l10.5,0h12.6c3.1,0,5.7-2.5,5.7-5.7v-0.1c0-2-0.5-3.9-1.5-5.6c-0.8-1.5-1.3-3.3-1.3-5.1
		c0-6.2,5.2-11.1,11.5-10.7c5.3,0.4,9.6,4.7,9.9,10c0.1,2.2-0.4,4.3-1.4,6c-0.7,1.3-1.1,2.7-1.1,4.2v1.3c0,3.1,2.5,5.6,5.6,5.6h15.6
		h8.3V27.7l-10.3-8L235,9.2l-29.2-4.8l-21.7,1L166.2,10z"/>
	<polygon fill="#D78313" points="270.5,30 270.5,49 286.5,49 279.7,38.9 	"/>
	<g>
		<path fill="#0A1277" d="M201.2,219c-14.6,0-28.9-2.9-42.2-8.5c-12.9-5.5-24.5-13.3-34.5-23.2c-10-10-17.8-21.6-23.2-34.5
			c-5.7-13.4-8.5-27.6-8.5-42.2s2.9-28.9,8.5-42.2c5.5-12.9,13.3-24.5,23.2-34.5c10-10,21.6-17.8,34.5-23.2
			C172.3,4.9,186.6,2,201.2,2s28.9,2.9,42.2,8.5c12.9,5.5,24.5,13.3,34.5,23.2c10,10,17.8,21.6,23.2,34.5
			c5.7,13.4,8.5,27.6,8.5,42.2s-2.9,28.9-8.5,42.2c-5.5,12.9-13.3,24.5-23.2,34.5c-10,10-21.6,17.8-34.5,23.2
			C230,216.1,215.8,219,201.2,219z M201.2,6.4c-14.1,0-27.7,2.8-40.5,8.2c-12.4,5.2-23.5,12.7-33.1,22.3S110.5,57.6,105.3,70
			c-5.4,12.8-8.2,26.5-8.2,40.5s2.8,27.7,8.2,40.5c5.2,12.4,12.7,23.5,22.3,33.1s20.7,17.1,33.1,22.3c12.8,5.4,26.5,8.2,40.5,8.2
			c14.1,0,27.7-2.8,40.5-8.2c12.4-5.2,23.5-12.7,33.1-22.3s17.1-20.7,22.3-33.1c5.4-12.8,8.2-26.5,8.2-40.5s-2.8-27.7-8.2-40.5
			c-5.2-12.4-12.7-23.5-22.3-33.1s-20.7-17.1-33.1-22.3C228.9,9.1,215.3,6.4,201.2,6.4z"/>
	</g>
	
		<path fill="#FFFFFF" stroke="#0A1277" stroke-width="2.6207" stroke-linecap="round" stroke-linejoin="round" stroke-miterlimit="10" d="
		M159.4,82.2c0,0,18.1-40.3,63.4-40.2c20.7,0,21.7,16.3,15.3,30s-22.9,55.4-30.3,73.9c-7.5,18.5,15.5,1.6,17.5,0
		c2-1.6,11.7-9.8,17.2-17c0,0-21.8,52.7-58,49.9c-34.3-2.3-13.6-43.3-6-65.9c7.6-22.5,17.3-46.1,17.3-46.1s2.2-4.3-0.1-4.3
		C193.4,62.5,183.8,61.8,159.4,82.2z"/>
</g>
</svg>
