<?xml version="1.0" encoding="utf-8"?>
<!-- Generator: Adobe Illustrator 18.1.1, SVG Export Plug-In . SVG Version: 6.00 Build 0)  -->
<svg version="1.1" id="Capa_1" xmlns="http://www.w3.org/2000/svg" xmlns:xlink="http://www.w3.org/1999/xlink" x="0px" y="0px"
	 viewBox="0 0 400 400" enable-background="new 0 0 400 400" xml:space="preserve">
<rect fill="none" width="400" height="400"/>
<g>
	<g>
		<path fill="#D11122" d="M390.2,48.5h-29.5L380,29.2h10.2c3.6,0,6.4-2.9,6.4-6.4s-2.9-6.4-6.4-6.4H10.6c-3.6,0-6.4,2.9-6.4,6.4
			s2.9,6.4,6.4,6.4h29.5L20.8,48.5H10.6c-3.6,0-6.4,2.9-6.4,6.4s2.9,6.4,6.4,6.4h19.6l-0.3,24.6L18.2,98.2
			c-10.7,11.2-10.3,28.9,0.9,39.6l26.2,25.1c1.2,1.1,2.8,1.8,4.4,1.8H50c0.8,0,1.5-0.2,2.2-0.5l71.7,103L88.1,374.5
			c-1.1,3.4,0.7,7,4.1,8.1c3.4,1.1,7-0.7,8.1-4.1l32.7-98.2l20.2,29.1c2,2.9,6,3.6,9,1.6s3.6-6,1.6-9l-25.7-36.9L177.5,147
			c0.2-0.6,0.3-1.3,0.3-2h38.7c0,0.7,0.1,1.5,0.3,2.2l28,77.5l-27.2,38.9c-2.1,2.8-1.5,6.9,1.3,9c2.8,2.1,6.9,1.5,9-1.3
			c0.1-0.1,0.2-0.2,0.2-0.3l22-31.4l50.3,139.3c0.9,2.5,3.3,4.2,6,4.2c0.7,0,1.5-0.1,2.2-0.4c3.3-1.2,5.1-4.9,3.9-8.2l-53.4-147.8
			l57.1-81.6l40.9,14l-44.1,177.4c-0.9,3.4,1.2,6.9,4.7,7.8c0,0,0,0,0,0c0.5,0.1,1,0.2,1.6,0.2c3,0,5.5-2,6.2-4.9l43.8-176.5
			c0.4,0.1,0.9,0.2,1.3,0.2c2.8,0,5.2-1.8,6.1-4.4l11.8-34.3c5-14.6-2.8-30.6-17.4-35.6l-0.3-0.1V61.4h19.3c3.6,0,6.4-2.9,6.4-6.4
			S393.8,48.5,390.2,48.5z M361.8,29.2l-16.6,16.6l-16.6-16.6C328.5,29.2,361.8,29.2,361.8,29.2z M329.6,48.5h-33.3L313,31.8
			L329.6,48.5z M297.5,29.2l-16.6,16.6l-16.6-16.6C264.2,29.2,297.5,29.2,297.5,29.2z M265.3,48.5H232l16.6-16.6L265.3,48.5z
			 M233.1,29.2l-16.6,16.6l-16.6-16.6C199.9,29.2,233.1,29.2,233.1,29.2z M201,48.5h-33.3l16.6-16.6L201,48.5z M168.8,29.2
			l-16.6,16.6l-16.6-16.6C135.5,29.2,168.8,29.2,168.8,29.2z M136.6,48.5h-33.3L120,31.8L136.6,48.5z M104.5,29.2L87.8,45.8
			L71.2,29.2H104.5z M55.7,31.8l16.6,16.6H39L55.7,31.8z M49.6,149.1L28,128.5c-6.1-5.8-6.3-15.4-0.5-21.4l14.6-15.3
			c2.8-2.9,6.6-4.6,10.6-4.7h0.3c3.9,0,7.7,1.5,10.5,4.2l21.6,20.6L49.6,149.1z M129,252l-67.4-96.8l26.7-28l66.8,42.5
			c0.4,0.2,0.7,0.4,1.1,0.5L129,252z M164.7,144.9l-4.3,12.9l-63-40.1l1.5-1.6c2.5-2.6,2.4-6.6-0.2-9.1l0,0L72.4,81.9
			c-5.3-5.2-12.6-8-20-7.7c-3.3,0.1-6.5,0.8-9.5,2l0.2-14.9h147.7v12.9h-4.1c-15.5,0-28,12.6-28,28v36.3
			C158.6,142,161.3,144.8,164.7,144.9z M222.9,132.1h-51.5v-29.9c0-8.4,6.8-15.1,15.2-15.2h21.1c8.4,0,15.1,6.8,15.2,15.2V132.1z
			 M315.6,99.6L303.9,134c-0.6,1.6-0.4,3.4,0.3,4.9c0.1,0.2,0.3,0.3,0.4,0.5l-50.7,72.4l-24.1-66.9c3.4-0.2,6-3,6.1-6.4v-36.3
			c0-15.5-12.6-28-28-28h-4.1V61.4H358v23.2l-6.8-2.3C336.6,77.2,320.7,85,315.6,99.6z M376.5,120.4l-9.7,28.3L318.1,132l9.7-28.2
			c2.7-7.9,11.3-12.2,19.3-9.5c0,0,0,0,0,0l20,6.8C375,103.9,379.2,112.5,376.5,120.4z"/>
	</g>
</g>
</svg>
