<?xml version="1.0" encoding="utf-8"?>
<!-- Generator: Adobe Illustrator 18.1.1, SVG Export Plug-In . SVG Version: 6.00 Build 0)  -->
<svg version="1.1" id="Capa_1" xmlns="http://www.w3.org/2000/svg" xmlns:xlink="http://www.w3.org/1999/xlink" x="0px" y="0px"
	 viewBox="0 0 400 400" enable-background="new 0 0 400 400" xml:space="preserve">
<rect fill="none" width="400" height="400"/>
<g>
	<g>
		<path fill="#FFFFFF" d="M41,141c5,3.5,20,13.9,45,31.3c25,17.3,44.2,30.7,57.5,40.1c1.5,1,4.6,3.3,9.3,6.7
			c4.8,3.4,8.7,6.2,11.9,8.3c3.1,2.1,7,4.5,11.4,7.1c4.5,2.6,8.7,4.6,12.6,5.9c4,1.3,7.6,2,11,2h0.2h0.2c3.4,0,7-0.7,11-2
			c3.9-1.3,8.2-3.3,12.6-5.9c4.5-2.6,8.3-5,11.4-7.1c3.1-2.1,7.1-4.9,11.9-8.3c4.8-3.4,7.9-5.7,9.3-6.7
			c13.5-9.4,47.7-33.1,102.7-71.3c10.7-7.5,19.6-16.5,26.8-27c7.2-10.5,10.8-21.6,10.8-33.1c0-9.7-3.5-17.9-10.4-24.8
			c-7-6.9-15.2-10.3-24.7-10.3H38.4c-11.3,0-19.9,3.8-26,11.4c-6.1,7.6-9.1,17.1-9.1,28.5c0,9.2,4,19.2,12.1,30
			C23.4,126.4,32,134.8,41,141z"/>
		<path fill="#FFFFFF" d="M374.7,164.5c-48,32.5-84.4,57.7-109.3,75.7c-8.3,6.1-15.1,10.9-20.3,14.4c-5.2,3.4-12.1,7-20.7,10.5
			c-8.6,3.6-16.7,5.4-24.1,5.4H200h-0.2c-7.5,0-15.5-1.8-24.1-5.4c-8.6-3.6-15.5-7.1-20.7-10.5c-5.2-3.4-12-8.2-20.3-14.4
			c-19.8-14.5-56.1-39.7-109.1-75.7c-8.3-5.6-15.7-11.9-22.2-19.1v174.3c0,9.7,3.4,17.9,10.3,24.8c6.9,6.9,15.1,10.3,24.8,10.3
			h323.1c9.7,0,17.9-3.4,24.8-10.3c6.9-6.9,10.3-15.1,10.3-24.8V145.4C390.3,152.4,383,158.8,374.7,164.5z"/>
	</g>
</g>
</svg>
