<?xml version="1.0" encoding="utf-8"?>
<!-- Generator: Adobe Illustrator 18.1.1, SVG Export Plug-In . SVG Version: 6.00 Build 0)  -->
<svg version="1.1" id="Capa_1" xmlns="http://www.w3.org/2000/svg" xmlns:xlink="http://www.w3.org/1999/xlink" x="0px" y="0px"
	 viewBox="0 0 400 400" enable-background="new 0 0 400 400" xml:space="preserve">
<rect fill="none" width="400" height="400"/>
<path fill="#FFFFFF" d="M200.4,2.9c-77.8,0-140.9,63.1-140.9,140.9c0,0-0.1,2.1,0.2,6.2c0.4,10.1,1.9,19.9,4.4,29.3
	c7,31.8,24.8,83,70,146c48.1,64.2,66.4,72.6,66.4,72.6s17.5-9.9,64.4-74.4c34.5-52.8,56.3-79.2,68.9-134.1
	c4.9-14.3,7.6-29.6,7.6-45.6C341.3,65.9,278.2,2.9,200.4,2.9z M199.5,228.7c-47.8,0-86.6-38.8-86.6-86.6c0-47.8,38.8-86.6,86.6-86.6
	s86.6,38.8,86.6,86.6C286.2,189.9,247.4,228.7,199.5,228.7z"/>
</svg>
