<?xml version="1.0" encoding="utf-8"?>
<!-- Generator: Adobe Illustrator 18.1.1, SVG Export Plug-In . SVG Version: 6.00 Build 0)  -->
<svg version="1.1" id="Capa_1" xmlns="http://www.w3.org/2000/svg" xmlns:xlink="http://www.w3.org/1999/xlink" x="0px" y="0px"
	 viewBox="0 0 435.2 243.1" enable-background="new 0 0 435.2 243.1" xml:space="preserve">
<g opacity="0.3">
	<defs>
		<rect id="SVGID_1_" y="0" opacity="0.3" width="435.2" height="243.1"/>
	</defs>
	<clipPath id="SVGID_2_">
		<use xlink:href="#SVGID_1_"  overflow="visible"/>
	</clipPath>
	<path clip-path="url(#SVGID_2_)" fill="#FFFFFF" d="M359.7,143.7c-7.9,0-15.3,2-21.8,5.5c-7.4,4-15.6,6.4-24,6.4h-0.3
		c-13.4,0-24.3-10.9-24.3-24.3V77.6V32.9V21.2h-8.8h-54.3h-52.8c-19.1,0-34.5,15.5-34.5,34.5c-0.2,8.9,3.8,22.5,8.3,29.9
		c2.5,5.5,3.7,11.7,3.2,18.2c-1.4,17.8-15.9,32.1-33.7,33.3c-21.3,1.5-39-15.3-39-36.3c0-5.7,1.3-11,3.6-15.8c0,0,8.1-16.3,8.1-26.2
		c0-21.6-15.2-37.6-36.9-37.6h-63.8h-39.1v45.7v66.8c0,13.3-10.8,24.1-24.1,24.1H-80c-6.3,0-12.5-1.6-17.9-4.7
		c-7.5-4.3-16.3-6.6-25.7-6.1c-22.7,1.4-41.2,19.7-42.8,42.4c-1.9,26.7,19.3,49,45.6,49c7.9,0,15.3-2,21.8-5.5
		c7.4-4,15.6-6.4,24-6.4h0.3c13.4,0,24.3,10.9,24.3,24.3v53.8l0,58.8h49h52.8c19.1,0,34.5-15.5,34.5-34.5c0.2-8.9-3.8-22.5-8.3-29.9
		c-2.5-5.5-3.7-11.7-3.2-18.2c1.4-17.8,15.9-32.1,33.7-33.3c21.3-1.5,39,15.3,39,36.3c0,5.7-1.3,11-3.6,15.8c0,0-8.1,16.3-8.1,26.2
		c0,21.6,15.2,37.6,36.9,37.6h63.8h42.1h11v-12.6v-35.5v-66.8c0-13.3,10.8-24.1,24-24.1h5.6c6.3,0,12.5,1.6,17.9,4.7
		c7.5,4.3,16.3,6.6,25.7,6.1c22.7-1.4,41.2-19.7,42.8-42.4C407.2,166,386.1,143.7,359.7,143.7z M358.9,226.1c-5.7,0-11-1.3-15.8-3.6
		c0,0-16.3-8.1-26.2-8.1c-21.6,0-37.6,15.2-37.6,36.9v63.8v38.1h-43.1h-66.8c-13.3,0-24.1-10.8-24.1-24v-5.6
		c0-6.3,1.6-12.5,4.7-17.9c4.3-7.5,6.6-16.3,6.1-25.7c-1.4-22.7-19.7-41.2-42.4-42.8c-26.7-1.9-49,19.3-49,45.6
		c0,7.9,2,15.3,5.5,21.8c4,7.4,6.4,15.6,6.4,24v0.3c0,13.4-10.9,24.3-24.3,24.3H-1.4h-38.9v-48.8v-52.8c0-19.1-15.5-34.5-34.5-34.5
		c-8.9-0.2-22.5,3.8-29.9,8.3c-5.5,2.5-11.7,3.7-18.2,3.2c-17.8-1.4-32.1-15.9-33.3-33.7c-1.5-21.3,15.3-39,36.3-39
		c5.7,0,11,1.3,15.8,3.6c0,0,16.3,8.1,26.2,8.1c21.6,0,37.6-15.2,37.6-36.9V66.9V31.2h29.1h66.8c13.3,0,24.1,10.8,24.1,24.1v5.6
		c0,6.3-1.6,12.5-4.7,17.9c-4.3,7.5-6.6,16.3-6.1,25.7c1.4,22.7,19.7,41.2,42.4,42.8c26.7,1.9,49-19.3,49-45.6
		c0-7.9-2-15.3-5.5-21.8c-4-7.4-6.4-15.6-6.4-24v-0.3c0-13.4,10.9-24.3,24.3-24.3h53.8h53v46.3v52.8c0,19.1,15.5,34.5,34.5,34.5
		c8.9,0.2,22.5-3.8,29.9-8.3c5.5-2.5,11.7-3.7,18.2-3.2c17.8,1.4,32.1,15.9,33.3,33.7C396.6,208.4,379.8,226.1,358.9,226.1z"/>
</g>
<rect y="0" fill="none" width="435.2" height="243.1"/>
</svg>
