<?xml version="1.0" encoding="utf-8"?>
<!-- Generator: Adobe Illustrator 18.1.1, SVG Export Plug-In . SVG Version: 6.00 Build 0)  -->
<svg version="1.1" id="Capa_1" xmlns="http://www.w3.org/2000/svg" xmlns:xlink="http://www.w3.org/1999/xlink" x="0px" y="0px"
	 viewBox="0 0 578.5 219.8" enable-background="new 0 0 578.5 219.8" xml:space="preserve">
<g opacity="0.3">
	<defs>
		<rect id="SVGID_1_" y="0" opacity="0.3" width="578.5" height="219.9"/>
	</defs>
	<clipPath id="SVGID_2_">
		<use xlink:href="#SVGID_1_"  overflow="visible"/>
	</clipPath>
	<path clip-path="url(#SVGID_2_)" fill="#FFFFFF" d="M-9.8,246.3c7.9,0,15.3-2,21.8-5.5c7.4-4,15.6-6.4,24-6.4h0.3
		c13.4,0,24.3,10.9,24.3,24.3v53.8v44.7v11.7h8.8h54.3h52.8c19.1,0,34.5-15.5,34.5-34.5c0.2-8.9-3.8-22.5-8.3-29.9
		c-2.5-5.5-3.7-11.7-3.2-18.2c1.4-17.8,15.9-32.1,33.7-33.3c21.3-1.5,39,15.3,39,36.3c0,5.7-1.3,11-3.6,15.8c0,0-8.1,16.3-8.1,26.2
		c0,21.6,15.2,37.6,36.9,37.6h63.8h39.1v-45.7v-66.8c0-13.3,10.8-24.1,24.1-24.1h5.6c6.3,0,12.5,1.6,17.9,4.7
		c7.5,4.3,16.3,6.6,25.7,6.1c22.7-1.4,41.2-19.7,42.8-42.4c1.9-26.7-19.3-49-45.6-49c-7.9,0-15.3,2-21.8,5.5c-7.4,4-15.6,6.4-24,6.4
		h-0.3c-13.4,0-24.3-10.9-24.3-24.3V85.6l0-58.8h-49h-52.8c-19.1,0-34.5,15.5-34.5,34.5c-0.2,8.9,3.8,22.5,8.3,29.9
		c2.5,5.5,3.7,11.7,3.2,18.2c-1.4,17.8-15.9,32.1-33.7,33.3c-21.3,1.5-39-15.3-39-36.3c0-5.7,1.3-11,3.6-15.8c0,0,8.1-16.3,8.1-26.2
		c0-21.6-15.2-37.6-36.9-37.6h-63.8H71.6h-11v12.6v35.5v66.8c0,13.3-10.8,24.1-24,24.1H31c-6.3,0-12.5-1.6-17.9-4.7
		c-7.5-4.3-16.3-6.6-25.7-6.1c-22.7,1.4-41.2,19.7-42.8,42.4C-57.3,224-36.2,246.3-9.8,246.3z M-9,163.9c5.7,0,11,1.3,15.8,3.6
		c0,0,16.3,8.1,26.2,8.1c21.6,0,37.6-15.2,37.6-36.9V74.9V36.8h43.1h66.8c13.3,0,24.1,10.8,24.1,24v5.6c0,6.3-1.6,12.5-4.7,17.9
		c-4.3,7.5-6.6,16.3-6.1,25.7c1.4,22.7,19.7,41.2,42.4,42.8c26.7,1.9,49-19.3,49-45.6c0-7.9-2-15.3-5.5-21.8c-4-7.4-6.4-15.6-6.4-24
		v-0.3c0-13.4,10.9-24.3,24.3-24.3h53.8h38.9v48.8v52.8c0,19.1,15.5,34.5,34.5,34.5c8.9,0.2,22.5-3.8,29.9-8.3
		c5.5-2.5,11.7-3.7,18.2-3.2c17.8,1.4,32.1,15.9,33.3,33.7c1.5,21.3-15.3,39-36.3,39c-5.7,0-11-1.3-15.8-3.6c0,0-16.3-8.1-26.2-8.1
		c-21.6,0-37.6,15.2-37.6,36.9v63.8v35.6h-29.1h-66.8c-13.3,0-24.1-10.8-24.1-24.1v-5.6c0-6.3,1.6-12.5,4.7-17.9
		c4.3-7.5,6.6-16.3,6.1-25.7c-1.4-22.7-19.7-41.2-42.4-42.8c-26.7-1.9-49,19.3-49,45.6c0,7.9,2,15.3,5.5,21.8c4,7.4,6.4,15.6,6.4,24
		v0.3c0,13.4-10.9,24.3-24.3,24.3h-53.8h-53v-46.3v-52.8c0-19.1-15.5-34.5-34.5-34.5c-8.9-0.2-22.5,3.8-29.9,8.3
		c-5.5,2.5-11.7,3.7-18.2,3.2c-17.8-1.4-32.1-15.9-33.3-33.7C-46.7,181.6-29.9,163.9-9,163.9z"/>
</g>
</svg>
