<?xml version="1.0" encoding="utf-8"?>
<!-- Generator: Adobe Illustrator 18.1.1, SVG Export Plug-In . SVG Version: 6.00 Build 0)  -->
<svg version="1.1" id="Capa_1" xmlns="http://www.w3.org/2000/svg" xmlns:xlink="http://www.w3.org/1999/xlink" x="0px" y="0px"
	 viewBox="0 0 400 400" enable-background="new 0 0 400 400" xml:space="preserve">
<rect fill="none" width="400" height="400"/>
<g>
	<g>
		<path fill="#FFFFFF" d="M395,312c0.8,6.3-1.1,11.8-5.8,16.5L334.3,383c-2.5,2.8-5.7,5.1-9.7,7c-4,1.9-7.9,3.2-11.8,3.7
			c-0.3,0-1.1,0.1-2.5,0.2c-1.4,0.1-3.2,0.2-5.4,0.2c-5.2,0-13.7-0.9-25.4-2.7c-11.7-1.8-26-6.2-42.9-13.2
			c-16.9-7-36.1-17.5-57.6-31.6c-21.5-14-44.3-33.3-68.5-57.8c-19.3-19-35.2-37.1-47.9-54.5c-12.7-17.3-22.8-33.4-30.5-48.1
			c-7.7-14.7-13.5-28.1-17.3-40c-3.9-12-6.5-22.3-7.8-31S5.1,99.8,5.4,94.9c0.3-5,0.4-7.7,0.4-8.3c0.6-3.9,1.8-7.8,3.7-11.8
			s4.3-7.2,7-9.7l54.9-54.9c3.9-3.9,8.3-5.8,13.2-5.8c3.6,0,6.7,1,9.5,3.1s5.1,4.6,7,7.6L145.3,99c2.5,4.4,3.2,9.2,2.1,14.4
			c-1.1,5.2-3.4,9.6-7,13.2l-20.2,20.2c-0.6,0.6-1,1.4-1.4,2.7s-0.6,2.3-0.6,3.1c1.1,5.8,3.6,12.4,7.4,19.8
			c3.3,6.6,8.4,14.7,15.3,24.1s16.6,20.4,29.3,32.8c12.4,12.7,23.4,22.5,33,29.5c9.6,7,17.7,12.2,24.1,15.5c6.5,3.3,11.4,5.3,14.9,6
			l5.2,1c0.6,0,1.4-0.2,2.7-0.6c1.2-0.4,2.1-0.9,2.7-1.4l23.5-23.9c5-4.4,10.7-6.6,17.3-6.6c4.7,0,8.4,0.8,11.1,2.5h0.4l79.7,47.1
			C390.5,302,393.9,306.5,395,312z"/>
	</g>
</g>
</svg>
