<?xml version="1.0" encoding="utf-8"?>
<!-- Generator: Adobe Illustrator 18.1.1, SVG Export Plug-In . SVG Version: 6.00 Build 0)  -->
<svg version="1.1" id="Capa_1" xmlns="http://www.w3.org/2000/svg" xmlns:xlink="http://www.w3.org/1999/xlink" x="0px" y="0px"
	 viewBox="0 0 400 400" enable-background="new 0 0 400 400" xml:space="preserve">
<g>
	<g>
		<g>
			<g>
				<path fill="#D11122" d="M91.8,120.7c-1.4,0-2.5,1.1-2.5,2.5c0,1.4,1.1,2.5,2.5,2.5s2.5-1.1,2.5-2.5
					C94.3,121.9,93.2,120.7,91.8,120.7z"/>
			</g>
		</g>
		<g>
			<g>
				<path fill="#D11122" d="M40.8,171.7c-1.4,0-2.5,1.1-2.5,2.5c0,1.4,1.1,2.5,2.5,2.5c1.4,0,2.5-1.1,2.5-2.5
					C43.3,172.8,42.2,171.7,40.8,171.7z"/>
			</g>
		</g>
		<g>
			<g>
				<path fill="#D11122" d="M130.6,138.1c-0.2-1.2-1.3-2.1-2.5-2.1h-9.9c-1.3-5.3-3.4-10.3-6.2-15l7.4-7.4c0.9-0.9,1-2.3,0.3-3.3
					c-4.1-5.8-9.2-10.9-15-15c-1-0.7-2.4-0.6-3.3,0.3L94,103c-4.7-2.8-9.7-4.9-15-6.2v-9.9c0-1.2-0.9-2.3-2.1-2.5
					c-7-1.2-14.3-1.2-21.2,0c-1.2,0.2-2.1,1.3-2.1,2.5v9.9c-5.3,1.3-10.3,3.4-15,6.2l-7.4-7.4c-0.9-0.9-2.3-1-3.3-0.3
					c-5.8,4.1-10.9,9.2-15,15c-0.7,1-0.6,2.4,0.3,3.3l7.4,7.4c-2.8,4.7-4.9,9.7-6.2,15H4.4c-1.2,0-2.3,0.9-2.5,2.1
					c-0.6,3.5-0.9,7.1-0.9,10.6c0,3.6,0.3,7.1,0.9,10.6c0.2,1.2,1.3,2.1,2.5,2.1h9.9c1.3,5.3,3.4,10.3,6.2,15l-7.4,7.4
					c-0.9,0.9-1,2.3-0.3,3.3c4.1,5.8,9.2,10.9,15,15c1,0.7,2.4,0.6,3.3-0.3l7.4-7.4c4.7,2.8,9.7,4.9,15,6.2v9.9
					c0,1.2,0.9,2.3,2.1,2.5c3.5,0.6,7.1,0.9,10.6,0.9c3.6,0,7.1-0.3,10.6-0.9c1.2-0.2,2.1-1.3,2.1-2.5v-9.9c5.3-1.3,10.3-3.4,15-6.2
					l7.4,7.4c0.9,0.9,2.3,1,3.3,0.3c5.8-4.1,10.9-9.2,15-15c0.7-1,0.6-2.4-0.3-3.3l-7.4-7.4c2.8-4.7,4.9-9.7,6.2-15h9.9
					c1.2,0,2.3-0.9,2.5-2.1c0.6-3.5,0.9-7.1,0.9-10.6C131.5,145.2,131.2,141.6,130.6,138.1z M125.9,156.4h-9.7c-1.2,0-2.3,0.9-2.5,2
					c-1.2,6.1-3.6,11.8-7.1,17c-0.7,1-0.5,2.4,0.3,3.2l7.3,7.3c-3.1,4.1-6.7,7.7-10.8,10.8l-7.3-7.3c-0.9-0.9-2.2-1-3.2-0.3
					c-5.2,3.4-10.9,5.8-17,7.1c-1.2,0.2-2,1.3-2,2.5v9.7c-5.1,0.7-10.2,0.7-15.3,0v-9.7c0-1.2-0.9-2.3-2-2.5
					c-6.1-1.2-11.8-3.6-17-7.1c-1-0.7-2.4-0.5-3.2,0.3l-7.3,7.3c-4.1-3.1-7.7-6.7-10.8-10.8l7.3-7.3c0.9-0.9,1-2.2,0.3-3.2
					c-3.4-5.2-5.8-10.9-7.1-17c-0.2-1.2-1.3-2-2.5-2H6.6c-0.3-2.5-0.5-5.1-0.5-7.6c0-2.6,0.2-5.1,0.5-7.6h9.7c1.2,0,2.3-0.9,2.5-2
					c1.2-6.1,3.6-11.8,7.1-17c0.7-1,0.5-2.4-0.3-3.2l-7.3-7.3c3.1-4.1,6.7-7.7,10.8-10.8l7.3,7.3c0.9,0.9,2.2,1,3.2,0.3
					c5.2-3.4,10.9-5.8,17-7.1c1.2-0.2,2-1.3,2-2.5v-9.7c5.1-0.7,10.2-0.7,15.3,0v9.7c0,1.2,0.9,2.3,2,2.5c6.1,1.2,11.8,3.6,17,7.1
					c1,0.7,2.4,0.5,3.2-0.3l7.3-7.3c4.1,3.1,7.7,6.7,10.8,10.8l-7.3,7.3c-0.9,0.9-1,2.2-0.3,3.2c3.5,5.2,5.8,10.9,7.1,17
					c0.2,1.2,1.3,2,2.5,2h9.7c0.3,2.5,0.5,5.1,0.5,7.6C126.4,151.3,126.3,153.9,125.9,156.4z"/>
			</g>
		</g>
		<g>
			<g>
				<path fill="#D11122" d="M84.6,115.2c-5.6-3.1-11.9-4.7-18.3-4.7c-21.1,0-38.2,17.2-38.2,38.2c0,6.4,1.6,12.8,4.7,18.3
					c0.7,1.2,2.2,1.7,3.5,1c1.2-0.7,1.7-2.2,1-3.5c-2.7-4.8-4.1-10.3-4.1-15.9c0-18.3,14.9-33.1,33.1-33.1c5.6,0,11,1.4,15.9,4.1
					c1.2,0.7,2.8,0.2,3.5-1C86.3,117.4,85.8,115.9,84.6,115.2z"/>
			</g>
		</g>
		<g>
			<g>
				<path fill="#D11122" d="M99.8,130.4c-0.7-1.2-2.2-1.7-3.5-1c-1.2,0.7-1.7,2.2-1,3.5c2.7,4.8,4.1,10.3,4.1,15.9
					c0,18.3-14.9,33.1-33.1,33.1c-5.6,0-11-1.4-15.9-4.1c-1.2-0.7-2.8-0.2-3.5,1c-0.7,1.2-0.2,2.8,1,3.5c5.6,3.1,11.9,4.7,18.3,4.7
					c21.1,0,38.2-17.2,38.2-38.2C104.5,142.3,102.9,136,99.8,130.4z"/>
			</g>
		</g>
		<g>
			<g>
				<path fill="#D11122" d="M66.3,120.7c-15.5,0-28,12.6-28,28s12.6,28,28,28s28-12.6,28-28S81.7,120.7,66.3,120.7z M66.3,171.7
					c-12.7,0-22.9-10.3-22.9-22.9c0-12.7,10.3-22.9,22.9-22.9s22.9,10.3,22.9,22.9C89.2,161.4,78.9,171.7,66.3,171.7z"/>
			</g>
		</g>
	</g>
	<g>
		<g>
			<g>
				<path fill="#D11122" d="M332.8,54.6c-1.7,0-3,1.3-3,3s1.3,3,3,3c1.7,0,3-1.3,3-3S334.4,54.6,332.8,54.6z"/>
			</g>
		</g>
		<g>
			<g>
				<path fill="#D11122" d="M272.5,114.9c-1.7,0-3,1.3-3,3s1.3,3,3,3s3-1.3,3-3C275.5,116.2,274.2,114.9,272.5,114.9z"/>
			</g>
		</g>
		<g>
			<g>
				<path fill="#D11122" d="M378.7,75.2c-0.2-1.5-1.5-2.5-3-2.5h-11.7c-1.5-6.3-4-12.2-7.4-17.7l8.8-8.8c1-1,1.2-2.7,0.3-3.9
					c-4.9-6.9-10.9-12.8-17.7-17.7c-1.2-0.9-2.8-0.7-3.9,0.3l-8.8,8.8c-5.5-3.4-11.5-5.8-17.7-7.4V14.6c0-1.5-1.1-2.7-2.5-3
					c-8.2-1.4-16.9-1.4-25.1,0c-1.5,0.2-2.5,1.5-2.5,3v11.7c-6.3,1.5-12.2,4-17.7,7.4l-8.8-8.8c-1-1-2.7-1.2-3.9-0.3
					c-6.9,4.9-12.8,10.9-17.7,17.7c-0.9,1.2-0.7,2.8,0.3,3.9l8.8,8.8c-3.4,5.5-5.8,11.5-7.4,17.7h-11.7c-1.5,0-2.7,1.1-3,2.5
					c-0.7,4.1-1,8.3-1,12.6c0,4.2,0.4,8.4,1,12.6c0.2,1.5,1.5,2.5,3,2.5h11.7c1.5,6.3,4,12.2,7.4,17.7l-8.8,8.8
					c-1,1-1.2,2.7-0.3,3.9c4.9,6.9,10.9,12.8,17.7,17.7c1.2,0.9,2.8,0.7,3.9-0.3l8.8-8.8c5.5,3.4,11.5,5.8,17.7,7.4v11.7
					c0,1.5,1.1,2.7,2.5,3c4.1,0.7,8.3,1,12.6,1s8.4-0.4,12.6-1c1.5-0.2,2.5-1.5,2.5-3v-11.7c6.3-1.5,12.2-4,17.7-7.4l8.8,8.8
					c1,1,2.7,1.2,3.9,0.3c6.9-4.9,12.8-10.9,17.7-17.7c0.9-1.2,0.7-2.8-0.3-3.9l-8.8-8.8c3.4-5.5,5.8-11.5,7.4-17.7h11.7
					c1.5,0,2.7-1.1,3-2.5c0.7-4.1,1-8.3,1-12.6C379.8,83.5,379.4,79.3,378.7,75.2z M373.2,96.8h-11.5c-1.4,0-2.7,1-3,2.4
					c-1.5,7.2-4.3,14-8.4,20.1c-0.8,1.2-0.6,2.8,0.4,3.8l8.6,8.6c-3.7,4.8-8,9.1-12.8,12.8l-8.6-8.6c-1-1-2.6-1.2-3.8-0.4
					c-6.1,4.1-12.9,6.9-20.1,8.4c-1.4,0.3-2.4,1.5-2.4,3v11.5c-6,0.8-12.1,0.8-18.1,0v-11.5c0-1.4-1-2.7-2.4-3
					c-7.2-1.5-14-4.3-20.1-8.4c-1.2-0.8-2.8-0.6-3.8,0.4l-8.6,8.6c-4.8-3.7-9.1-8-12.8-12.8l8.6-8.6c1-1,1.2-2.6,0.4-3.8
					c-4.1-6.1-6.9-12.9-8.4-20.1c-0.3-1.4-1.5-2.4-3-2.4h-11.5c-0.4-3-0.6-6-0.6-9c0-3,0.2-6.1,0.6-9h11.5c1.4,0,2.7-1,3-2.4
					c1.5-7.2,4.3-14,8.4-20.1c0.8-1.2,0.6-2.8-0.4-3.8l-8.6-8.6c3.7-4.8,8-9.1,12.8-12.8l8.6,8.6c1,1,2.6,1.2,3.8,0.4
					c6.1-4.1,12.9-6.9,20.1-8.4c1.4-0.3,2.4-1.5,2.4-3V17.2c6-0.8,12.1-0.8,18.1,0v11.5c0,1.4,1,2.7,2.4,3c7.2,1.5,14,4.3,20.1,8.4
					c1.2,0.8,2.8,0.6,3.8-0.4l8.6-8.6c4.8,3.7,9.1,8,12.8,12.8l-8.6,8.6c-1,1-1.2,2.6-0.4,3.8c4.1,6.1,6.9,12.9,8.4,20.1
					c0.3,1.4,1.5,2.4,3,2.4h11.5c0.4,3,0.6,6,0.6,9C373.7,90.8,373.5,93.8,373.2,96.8z"/>
			</g>
		</g>
		<g>
			<g>
				<path fill="#D11122" d="M324.3,48.1c-6.6-3.6-14.1-5.5-21.7-5.5c-24.9,0-45.2,20.3-45.2,45.2c0,7.6,1.9,15.1,5.5,21.7
					c0.8,1.5,2.6,2,4.1,1.2c1.5-0.8,2-2.6,1.2-4.1c-3.1-5.7-4.8-12.2-4.8-18.8c0-21.6,17.6-39.2,39.2-39.2c6.6,0,13.1,1.7,18.8,4.8
					c1.5,0.8,3.3,0.3,4.1-1.2C326.3,50.7,325.8,48.9,324.3,48.1z"/>
			</g>
		</g>
		<g>
			<g>
				<path fill="#D11122" d="M342.3,66.1c-0.8-1.5-2.6-2-4.1-1.2c-1.5,0.8-2,2.6-1.2,4.1c3.1,5.7,4.8,12.2,4.8,18.8
					c0,21.6-17.6,39.2-39.2,39.2c-6.6,0-13.1-1.7-18.8-4.8c-1.5-0.8-3.3-0.3-4.1,1.2c-0.8,1.5-0.3,3.3,1.2,4.1
					c6.6,3.6,14.1,5.5,21.7,5.5c24.9,0,45.2-20.3,45.2-45.2C347.8,80.2,345.9,72.7,342.3,66.1z"/>
			</g>
		</g>
		<g>
			<g>
				<path fill="#D11122" d="M302.6,54.6c-18.3,0-33.1,14.9-33.1,33.1s14.9,33.1,33.1,33.1c18.3,0,33.1-14.9,33.1-33.1
					S320.9,54.6,302.6,54.6z M302.6,114.9c-15,0-27.1-12.2-27.1-27.1s12.2-27.1,27.1-27.1c15,0,27.1,12.2,27.1,27.1
					C329.8,102.7,317.6,114.9,302.6,114.9z"/>
			</g>
		</g>
	</g>
	<g>
		<g>
			<g>
				<path fill="#D11122" d="M302.6,277.8c-1.7,0-3,1.3-3,3c0,1.7,1.3,3,3,3s3-1.3,3-3C305.6,279.1,304.3,277.8,302.6,277.8z"/>
			</g>
		</g>
		<g>
			<g>
				<path fill="#D11122" d="M242.4,338c-1.7,0-3,1.3-3,3c0,1.7,1.3,3,3,3c1.7,0,3-1.3,3-3S244,338,242.4,338z"/>
			</g>
		</g>
		<g>
			<g>
				<path fill="#D11122" d="M348.6,298.4c-0.2-1.5-1.5-2.5-3-2.5H334c-1.5-6.3-4-12.2-7.4-17.7l8.8-8.8c1-1,1.2-2.7,0.3-3.9
					c-4.9-6.9-10.9-12.8-17.7-17.7c-1.2-0.9-2.8-0.7-3.9,0.3l-8.8,8.8c-5.5-3.4-11.5-5.8-17.7-7.4v-11.7c0-1.5-1.1-2.7-2.5-3
					c-8.2-1.4-16.9-1.4-25.1,0c-1.5,0.2-2.5,1.5-2.5,3v11.7c-6.3,1.5-12.2,4-17.7,7.4l-8.8-8.8c-1-1-2.7-1.2-3.9-0.3
					c-6.9,4.9-12.8,10.9-17.7,17.7c-0.9,1.2-0.7,2.8,0.3,3.9l8.8,8.8c-3.4,5.5-5.8,11.5-7.4,17.7h-11.7c-1.5,0-2.7,1.1-3,2.5
					c-0.7,4.1-1,8.3-1,12.6c0,4.2,0.4,8.4,1,12.6c0.2,1.5,1.5,2.5,3,2.5H211c1.5,6.3,4,12.2,7.4,17.7l-8.8,8.8c-1,1-1.2,2.7-0.3,3.9
					c4.9,6.9,10.9,12.8,17.7,17.7c1.2,0.9,2.8,0.7,3.9-0.3l8.8-8.8c5.5,3.4,11.5,5.8,17.7,7.4V384c0,1.5,1.1,2.7,2.5,3
					c4.1,0.7,8.3,1,12.6,1s8.4-0.4,12.6-1c1.5-0.2,2.5-1.5,2.5-3v-11.7c6.3-1.5,12.2-4,17.7-7.4l8.8,8.8c1,1,2.7,1.2,3.9,0.3
					c6.9-4.9,12.8-10.9,17.7-17.7c0.9-1.2,0.7-2.8-0.3-3.9l-8.8-8.8c3.4-5.5,5.8-11.5,7.4-17.7h11.7c1.5,0,2.7-1.1,3-2.5
					c0.7-4.1,1-8.3,1-12.6C349.6,306.7,349.3,302.5,348.6,298.4z M343,319.9h-11.5c-1.4,0-2.7,1-3,2.4c-1.5,7.2-4.3,14-8.4,20.1
					c-0.8,1.2-0.6,2.8,0.4,3.8l8.6,8.6c-3.7,4.8-8,9.1-12.8,12.8l-8.6-8.6c-1-1-2.6-1.2-3.8-0.4c-6.1,4.1-12.9,6.9-20.1,8.4
					c-1.4,0.3-2.4,1.5-2.4,3v11.5c-6,0.8-12.1,0.8-18.1,0V370c0-1.4-1-2.7-2.4-3c-7.2-1.5-14-4.3-20.1-8.4c-1.2-0.8-2.8-0.6-3.8,0.4
					l-8.6,8.6c-4.8-3.7-9.1-8-12.8-12.8l8.6-8.6c1-1,1.2-2.6,0.4-3.8c-4.1-6.1-6.9-12.9-8.4-20.1c-0.3-1.4-1.5-2.4-3-2.4H202
					c-0.4-3-0.6-6-0.6-9s0.2-6.1,0.6-9h11.5c1.4,0,2.7-1,3-2.4c1.5-7.2,4.3-14,8.4-20.1c0.8-1.2,0.6-2.8-0.4-3.8l-8.6-8.6
					c3.7-4.8,8-9.1,12.8-12.8l8.6,8.6c1,1,2.6,1.2,3.8,0.4c6.1-4.1,12.9-6.9,20.1-8.4c1.4-0.3,2.4-1.5,2.4-3v-11.5
					c6-0.8,12.1-0.8,18.1,0v11.5c0,1.4,1,2.7,2.4,3c7.2,1.5,14,4.3,20.1,8.4c1.2,0.8,2.8,0.6,3.8-0.4l8.6-8.6
					c4.8,3.7,9.1,8,12.8,12.8l-8.6,8.6c-1,1-1.2,2.6-0.4,3.8c4.1,6.1,6.9,12.9,8.4,20.1c0.3,1.4,1.5,2.4,3,2.4H343
					c0.4,3,0.6,6,0.6,9C343.6,313.9,343.4,317,343,319.9z"/>
			</g>
		</g>
		<g>
			<g>
				<path fill="#D11122" d="M294.2,271.3c-6.6-3.6-14.1-5.5-21.7-5.5c-24.9,0-45.2,20.3-45.2,45.2c0,7.6,1.9,15.1,5.5,21.7
					c0.8,1.5,2.6,2,4.1,1.2c1.5-0.8,2-2.6,1.2-4.1c-3.1-5.7-4.8-12.2-4.8-18.8c0-21.6,17.6-39.2,39.2-39.2c6.6,0,13.1,1.7,18.8,4.8
					c1.5,0.8,3.3,0.3,4.1-1.2C296.2,273.9,295.7,272.1,294.2,271.3z"/>
			</g>
		</g>
		<g>
			<g>
				<path fill="#D11122" d="M312.2,289.2c-0.8-1.5-2.6-2-4.1-1.2c-1.5,0.8-2,2.6-1.2,4.1c3.1,5.7,4.8,12.2,4.8,18.8
					c0,21.6-17.6,39.2-39.2,39.2c-6.6,0-13.1-1.7-18.8-4.8c-1.5-0.8-3.3-0.3-4.1,1.2c-0.8,1.5-0.3,3.3,1.2,4.1
					c6.6,3.6,14.1,5.5,21.7,5.5c24.9,0,45.2-20.3,45.2-45.2C317.7,303.3,315.8,295.8,312.2,289.2z"/>
			</g>
		</g>
		<g>
			<g>
				<path fill="#D11122" d="M272.5,277.8c-18.3,0-33.1,14.9-33.1,33.1c0,18.3,14.9,33.1,33.1,33.1s33.1-14.9,33.1-33.1
					C305.6,292.6,290.8,277.8,272.5,277.8z M272.5,338c-15,0-27.1-12.2-27.1-27.1c0-15,12.2-27.1,27.1-27.1s27.1,12.2,27.1,27.1
					C299.6,325.9,287.5,338,272.5,338z"/>
			</g>
		</g>
	</g>
	<g>
		<g>
			<g>
				<path fill="#D11122" d="M216.8,168.9c-1.3,0-2.3,1-2.3,2.3c0,1.3,1,2.3,2.3,2.3c1.3,0,2.3-1,2.3-2.3
					C219,169.9,218,168.9,216.8,168.9z"/>
			</g>
		</g>
		<g>
			<g>
				<path fill="#D11122" d="M171.3,214.3c-1.3,0-2.3,1-2.3,2.3c0,1.3,1,2.3,2.3,2.3s2.3-1,2.3-2.3
					C173.6,215.3,172.6,214.3,171.3,214.3z"/>
			</g>
		</g>
		<g>
			<g>
				<path fill="#D11122" d="M251.4,184.4c-0.2-1.1-1.1-1.9-2.2-1.9h-8.8c-1.2-4.7-3-9.2-5.6-13.4l6.6-6.6c0.8-0.8,0.9-2,0.2-2.9
					c-3.7-5.2-8.2-9.7-13.4-13.4c-0.9-0.6-2.1-0.5-2.9,0.2l-6.6,6.6c-4.2-2.5-8.6-4.4-13.4-5.6v-8.8c0-1.1-0.8-2.1-1.9-2.2
					c-6.2-1-12.7-1-18.9,0c-1.1,0.2-1.9,1.1-1.9,2.2v8.8c-4.7,1.2-9.2,3-13.4,5.6l-6.6-6.6c-0.8-0.8-2-0.9-2.9-0.2
					c-5.2,3.7-9.7,8.2-13.4,13.4c-0.6,0.9-0.5,2.1,0.2,2.9l6.6,6.6c-2.5,4.2-4.4,8.6-5.6,13.4h-8.8c-1.1,0-2.1,0.8-2.2,1.9
					c-0.5,3.1-0.8,6.3-0.8,9.5c0,3.2,0.3,6.4,0.8,9.5c0.2,1.1,1.1,1.9,2.2,1.9h8.8c1.2,4.7,3,9.2,5.6,13.4l-6.6,6.6
					c-0.8,0.8-0.9,2-0.2,2.9c3.7,5.2,8.2,9.7,13.4,13.4c0.9,0.6,2.1,0.5,2.9-0.2l6.6-6.6c4.2,2.5,8.6,4.4,13.4,5.6v8.8
					c0,1.1,0.8,2.1,1.9,2.2c3.1,0.5,6.3,0.8,9.5,0.8s6.4-0.3,9.5-0.8c1.1-0.2,1.9-1.1,1.9-2.2v-8.8c4.7-1.2,9.2-3,13.4-5.6l6.6,6.6
					c0.8,0.8,2,0.9,2.9,0.2c5.2-3.7,9.7-8.2,13.4-13.4c0.6-0.9,0.5-2.1-0.2-2.9l-6.6-6.6c2.5-4.2,4.4-8.6,5.6-13.4h8.8
					c1.1,0,2.1-0.8,2.2-1.9c0.5-3.1,0.8-6.3,0.8-9.5C252.2,190.7,251.9,187.5,251.4,184.4z M247.2,200.7h-8.6c-1.1,0-2,0.8-2.2,1.8
					c-1.1,5.4-3.2,10.5-6.3,15.2c-0.6,0.9-0.5,2.1,0.3,2.9l6.5,6.5c-2.8,3.6-6,6.9-9.6,9.6l-6.5-6.5c-0.8-0.8-2-0.9-2.9-0.3
					c-4.6,3.1-9.7,5.2-15.2,6.3c-1.1,0.2-1.8,1.1-1.8,2.2v8.6c-4.5,0.6-9.1,0.6-13.6,0v-8.6c0-1.1-0.8-2-1.8-2.2
					c-5.4-1.1-10.5-3.2-15.2-6.3c-0.9-0.6-2.1-0.5-2.9,0.3l-6.5,6.5c-3.6-2.8-6.9-6-9.6-9.6l6.5-6.5c0.8-0.8,0.9-2,0.3-2.9
					c-3.1-4.6-5.2-9.7-6.3-15.2c-0.2-1.1-1.1-1.8-2.2-1.8h-8.6c-0.3-2.3-0.4-4.5-0.4-6.8c0-2.3,0.1-4.6,0.4-6.8h8.6
					c1.1,0,2-0.8,2.2-1.8c1.1-5.4,3.2-10.5,6.3-15.2c0.6-0.9,0.5-2.1-0.3-2.9l-6.5-6.5c2.8-3.6,6-6.9,9.6-9.6l6.5,6.5
					c0.8,0.8,2,0.9,2.9,0.3c4.6-3.1,9.7-5.2,15.2-6.3c1.1-0.2,1.8-1.1,1.8-2.2v-8.6c4.5-0.6,9.1-0.6,13.6,0v8.6c0,1.1,0.8,2,1.8,2.2
					c5.4,1.1,10.5,3.2,15.2,6.3c0.9,0.6,2.1,0.5,2.9-0.3l6.5-6.5c3.6,2.8,6.9,6,9.6,9.6l-6.5,6.5c-0.8,0.8-0.9,2-0.3,2.9
					c3.1,4.6,5.2,9.7,6.3,15.2c0.2,1.1,1.1,1.8,2.2,1.8h8.6c0.3,2.3,0.4,4.5,0.4,6.8C247.7,196.2,247.5,198.4,247.2,200.7z"/>
			</g>
		</g>
		<g>
			<g>
				<path fill="#D11122" d="M210.4,164c-5-2.7-10.6-4.2-16.3-4.2c-18.8,0-34.1,15.3-34.1,34.1c0,5.7,1.4,11.4,4.2,16.3
					c0.6,1.1,2,1.5,3.1,0.9c1.1-0.6,1.5-2,0.9-3.1c-2.4-4.3-3.6-9.2-3.6-14.2c0-16.3,13.2-29.5,29.5-29.5c4.9,0,9.8,1.3,14.2,3.6
					c1.1,0.6,2.5,0.2,3.1-0.9C211.9,166,211.5,164.6,210.4,164z"/>
			</g>
		</g>
		<g>
			<g>
				<path fill="#D11122" d="M223.9,177.5c-0.6-1.1-2-1.5-3.1-0.9c-1.1,0.6-1.5,2-0.9,3.1c2.4,4.3,3.6,9.2,3.6,14.2
					c0,16.3-13.2,29.5-29.5,29.5c-4.9,0-9.8-1.3-14.2-3.6c-1.1-0.6-2.5-0.2-3.1,0.9c-0.6,1.1-0.2,2.5,0.9,3.1
					c5,2.7,10.6,4.2,16.3,4.2c18.8,0,34.1-15.3,34.1-34.1C228.1,188.2,226.7,182.5,223.9,177.5z"/>
			</g>
		</g>
	</g>
	<g>
		<g>
			<g>
				<path fill="#D11122" d="M371.8,190.5c-1,0-1.7,0.8-1.7,1.7c0,1,0.8,1.7,1.7,1.7c1,0,1.7-0.8,1.7-1.7
					C373.5,191.3,372.8,190.5,371.8,190.5z"/>
			</g>
		</g>
		<g>
			<g>
				<path fill="#D11122" d="M336.8,225.5c-1,0-1.7,0.8-1.7,1.7s0.8,1.7,1.7,1.7s1.7-0.8,1.7-1.7S337.8,225.5,336.8,225.5z"/>
			</g>
		</g>
		<g>
			<g>
				<path fill="#D11122" d="M398.5,202.5c-0.1-0.8-0.9-1.5-1.7-1.5H390c-0.9-3.6-2.3-7.1-4.3-10.3l5.1-5.1c0.6-0.6,0.7-1.6,0.2-2.3
					c-2.8-4-6.3-7.5-10.3-10.3c-0.7-0.5-1.6-0.4-2.3,0.2l-5.1,5.1c-3.2-2-6.7-3.4-10.3-4.3v-6.8c0-0.9-0.6-1.6-1.5-1.7
					c-4.8-0.8-9.8-0.8-14.6,0c-0.8,0.1-1.5,0.9-1.5,1.7v6.8c-3.6,0.9-7.1,2.3-10.3,4.3l-5.1-5.1c-0.6-0.6-1.6-0.7-2.3-0.2
					c-4,2.8-7.5,6.3-10.3,10.3c-0.5,0.7-0.4,1.6,0.2,2.3l5.1,5.1c-2,3.2-3.4,6.7-4.3,10.3h-6.8c-0.9,0-1.6,0.6-1.7,1.5
					c-0.4,2.4-0.6,4.8-0.6,7.3c0,2.4,0.2,4.9,0.6,7.3c0.1,0.8,0.9,1.5,1.7,1.5h6.8c0.9,3.6,2.3,7.1,4.3,10.3l-5.1,5.1
					c-0.6,0.6-0.7,1.6-0.2,2.3c2.8,4,6.3,7.5,10.3,10.3c0.7,0.5,1.6,0.4,2.3-0.2l5.1-5.1c3.2,2,6.7,3.4,10.3,4.3v6.8
					c0,0.9,0.6,1.6,1.5,1.7c2.4,0.4,4.8,0.6,7.3,0.6s4.9-0.2,7.3-0.6c0.8-0.1,1.5-0.9,1.5-1.7v-6.8c3.6-0.9,7.1-2.3,10.3-4.3
					l5.1,5.1c0.6,0.6,1.6,0.7,2.3,0.2c4-2.8,7.5-6.3,10.3-10.3c0.5-0.7,0.4-1.6-0.2-2.3l-5.1-5.1c2-3.2,3.4-6.7,4.3-10.3h6.8
					c0.9,0,1.6-0.6,1.7-1.5c0.4-2.4,0.6-4.8,0.6-7.3S398.9,204.9,398.5,202.5z M395.2,215h-6.7c-0.8,0-1.5,0.6-1.7,1.4
					c-0.8,4.2-2.5,8.1-4.8,11.7c-0.5,0.7-0.4,1.6,0.2,2.2l5,5c-2.1,2.8-4.6,5.3-7.4,7.4l-5-5c-0.6-0.6-1.5-0.7-2.2-0.2
					c-3.6,2.4-7.5,4-11.7,4.8c-0.8,0.2-1.4,0.9-1.4,1.7v6.7c-3.5,0.5-7,0.5-10.5,0v-6.7c0-0.8-0.6-1.5-1.4-1.7
					c-4.2-0.8-8.1-2.5-11.7-4.8c-0.7-0.5-1.6-0.4-2.2,0.2l-5,5c-2.8-2.1-5.3-4.6-7.4-7.4l5-5c0.6-0.6,0.7-1.5,0.2-2.2
					c-2.4-3.6-4-7.5-4.8-11.7c-0.2-0.8-0.9-1.4-1.7-1.4h-6.7c-0.2-1.7-0.3-3.5-0.3-5.2s0.1-3.5,0.3-5.2h6.7c0.8,0,1.5-0.6,1.7-1.4
					c0.8-4.2,2.5-8.1,4.8-11.7c0.5-0.7,0.4-1.6-0.2-2.2l-5-5c2.1-2.8,4.6-5.3,7.4-7.4l5,5c0.6,0.6,1.5,0.7,2.2,0.2
					c3.6-2.4,7.5-4,11.7-4.8c0.8-0.2,1.4-0.9,1.4-1.7v-6.7c3.5-0.5,7-0.5,10.5,0v6.7c0,0.8,0.6,1.5,1.4,1.7
					c4.2,0.8,8.1,2.5,11.7,4.8c0.7,0.5,1.6,0.4,2.2-0.2l5-5c2.8,2.1,5.3,4.6,7.4,7.4l-5,5c-0.6,0.6-0.7,1.5-0.2,2.2
					c2.4,3.6,4,7.5,4.8,11.7c0.2,0.8,0.9,1.4,1.7,1.4h6.7c0.2,1.7,0.3,3.5,0.3,5.2C395.6,211.5,395.5,213.3,395.2,215z"/>
			</g>
		</g>
		<g>
			<g>
				<path fill="#D11122" d="M366.9,186.8c-3.8-2.1-8.2-3.2-12.6-3.2c-14.5,0-26.2,11.8-26.2,26.2c0,4.4,1.1,8.7,3.2,12.6
					c0.5,0.8,1.5,1.2,2.4,0.7c0.8-0.5,1.2-1.5,0.7-2.4c-1.8-3.3-2.8-7.1-2.8-10.9c0-12.5,10.2-22.7,22.7-22.7c3.8,0,7.6,1,10.9,2.8
					c0.8,0.5,1.9,0.2,2.4-0.7C368,188.3,367.7,187.2,366.9,186.8z"/>
			</g>
		</g>
		<g>
			<g>
				<path fill="#D11122" d="M377.3,197.2c-0.5-0.8-1.5-1.2-2.4-0.7c-0.8,0.5-1.2,1.5-0.7,2.4c1.8,3.3,2.8,7.1,2.8,10.9
					c0,12.5-10.2,22.7-22.7,22.7c-3.8,0-7.6-1-10.9-2.8c-0.8-0.5-1.9-0.2-2.4,0.7c-0.5,0.8-0.2,1.9,0.7,2.4
					c3.8,2.1,8.2,3.2,12.6,3.2c14.5,0,26.2-11.8,26.2-26.2C380.5,205.4,379.4,201,377.3,197.2z"/>
			</g>
		</g>
	</g>
	<g>
		<g>
			<g>
				<path fill="#D11122" d="M109,274.5c-1.3,0-2.3,1-2.3,2.3s1,2.3,2.3,2.3c1.3,0,2.3-1,2.3-2.3S110.3,274.5,109,274.5z"/>
			</g>
		</g>
		<g>
			<g>
				<path fill="#D11122" d="M62.9,320.7c-1.3,0-2.3,1-2.3,2.3s1,2.3,2.3,2.3c1.3,0,2.3-1,2.3-2.3S64.1,320.7,62.9,320.7z"/>
			</g>
		</g>
		<g>
			<g>
				<path fill="#D11122" d="M144.2,290.3c-0.2-1.1-1.1-1.9-2.3-1.9H133c-1.2-4.8-3.1-9.3-5.6-13.6l6.7-6.7c0.8-0.8,0.9-2.1,0.2-3
					c-3.8-5.3-8.3-9.8-13.6-13.6c-0.9-0.7-2.2-0.5-3,0.2l-6.7,6.7c-4.2-2.6-8.8-4.5-13.6-5.6v-8.9c0-1.1-0.8-2.1-1.9-2.3
					c-6.3-1.1-12.9-1.1-19.2,0c-1.1,0.2-1.9,1.1-1.9,2.3v8.9c-4.8,1.2-9.3,3.1-13.6,5.6l-6.7-6.7c-0.8-0.8-2.1-0.9-3-0.2
					c-5.3,3.8-9.8,8.3-13.6,13.6c-0.7,0.9-0.5,2.2,0.2,3l6.7,6.7c-2.6,4.2-4.5,8.8-5.6,13.6h-8.9c-1.1,0-2.1,0.8-2.3,1.9
					c-0.5,3.2-0.8,6.4-0.8,9.6c0,3.2,0.3,6.5,0.8,9.6c0.2,1.1,1.1,1.9,2.3,1.9h8.9c1.2,4.8,3.1,9.3,5.6,13.6l-6.7,6.7
					c-0.8,0.8-0.9,2.1-0.2,3c3.8,5.3,8.3,9.8,13.6,13.6c0.9,0.7,2.2,0.5,3-0.2l6.7-6.7c4.2,2.6,8.8,4.5,13.6,5.6v8.9
					c0,1.1,0.8,2.1,1.9,2.3c3.2,0.5,6.4,0.8,9.6,0.8c3.2,0,6.5-0.3,9.6-0.8c1.1-0.2,1.9-1.1,1.9-2.3V347c4.8-1.2,9.3-3.1,13.6-5.6
					l6.7,6.7c0.8,0.8,2.1,0.9,3,0.2c5.3-3.8,9.8-8.3,13.6-13.6c0.7-0.9,0.5-2.2-0.2-3l-6.7-6.7c2.6-4.2,4.5-8.8,5.6-13.6h8.9
					c1.1,0,2.1-0.8,2.3-1.9c0.5-3.2,0.8-6.4,0.8-9.6S144.7,293.5,144.2,290.3z M139.9,306.9h-8.8c-1.1,0-2,0.8-2.3,1.8
					c-1.1,5.5-3.3,10.7-6.4,15.4c-0.6,0.9-0.5,2.1,0.3,2.9l6.6,6.6c-2.8,3.7-6.1,7-9.8,9.8l-6.6-6.6c-0.8-0.8-2-0.9-2.9-0.3
					c-4.7,3.1-9.9,5.3-15.4,6.4c-1.1,0.2-1.8,1.2-1.8,2.3v8.8c-4.6,0.6-9.3,0.6-13.8,0v-8.8c0-1.1-0.8-2-1.8-2.3
					c-5.5-1.1-10.7-3.3-15.4-6.4c-0.9-0.6-2.1-0.5-2.9,0.3l-6.6,6.6c-3.7-2.8-7-6.1-9.8-9.8l6.6-6.6c0.8-0.8,0.9-2,0.3-2.9
					c-3.1-4.7-5.3-9.9-6.4-15.4c-0.2-1.1-1.2-1.8-2.3-1.8h-8.8c-0.3-2.3-0.4-4.6-0.4-6.9s0.2-4.6,0.4-6.9h8.8c1.1,0,2-0.8,2.3-1.8
					c1.1-5.5,3.3-10.7,6.4-15.4c0.6-0.9,0.5-2.1-0.3-2.9l-6.6-6.6c2.8-3.7,6.1-7,9.8-9.8l6.6,6.6c0.8,0.8,2,0.9,2.9,0.3
					c4.7-3.1,9.9-5.3,15.4-6.4c1.1-0.2,1.8-1.2,1.8-2.3v-8.8c4.6-0.6,9.3-0.6,13.8,0v8.8c0,1.1,0.8,2,1.8,2.3
					c5.5,1.1,10.7,3.3,15.4,6.4c0.9,0.6,2.1,0.5,2.9-0.3l6.6-6.6c3.7,2.8,7,6.1,9.8,9.8l-6.6,6.6c-0.8,0.8-0.9,2-0.3,2.9
					c3.1,4.7,5.3,9.9,6.4,15.4c0.2,1.1,1.2,1.8,2.3,1.8h8.8c0.3,2.3,0.4,4.6,0.4,6.9C140.4,302.2,140.2,304.6,139.9,306.9z"/>
			</g>
		</g>
		<g>
			<g>
				<path fill="#D11122" d="M102.5,269.6c-5.1-2.8-10.8-4.2-16.6-4.2c-19.1,0-34.6,15.5-34.6,34.6c0,5.8,1.5,11.5,4.2,16.6
					c0.6,1.1,2,1.5,3.1,0.9c1.1-0.6,1.5-2,0.9-3.1c-2.4-4.4-3.7-9.4-3.7-14.4c0-16.5,13.5-30,30-30c5,0,10,1.3,14.4,3.7
					c1.1,0.6,2.5,0.2,3.1-0.9C104.1,271.6,103.7,270.2,102.5,269.6z"/>
			</g>
		</g>
		<g>
			<g>
				<path fill="#D11122" d="M116.3,283.3c-0.6-1.1-2-1.5-3.1-0.9c-1.1,0.6-1.5,2-0.9,3.1c2.4,4.4,3.7,9.4,3.7,14.4
					c0,16.5-13.5,30-30,30c-5,0-10-1.3-14.4-3.7c-1.1-0.6-2.5-0.2-3.1,0.9c-0.6,1.1-0.2,2.5,0.9,3.1c5.1,2.8,10.8,4.2,16.6,4.2
					c19.1,0,34.6-15.5,34.6-34.6C120.5,294.1,119.1,288.4,116.3,283.3z"/>
			</g>
		</g>
	</g>
</g>
<rect fill="none" width="400" height="400"/>
</svg>
