<?xml version="1.0" encoding="utf-8"?>
<!-- Generator: Adobe Illustrator 18.1.1, SVG Export Plug-In . SVG Version: 6.00 Build 0)  -->
<svg version="1.1" id="Capa_1" xmlns="http://www.w3.org/2000/svg" xmlns:xlink="http://www.w3.org/1999/xlink" x="0px" y="0px"
	 viewBox="0 0 400 400" enable-background="new 0 0 400 400" xml:space="preserve">
<rect fill="none" width="400" height="400"/>
<g>
	<path fill="#FFFFFF" d="M203.1,3.8C97.4,3.8,11.6,89.6,11.6,195.3c0,36.2,10.1,70.1,27.6,99l-34.9,102l105.4-33.8
		c27.6,15.5,59.5,24.3,93.4,24.3c105.8,0,191.5-85.7,191.5-191.5S308.9,3.8,203.1,3.8z M203.3,355.7c-32.9,0-63.6-9.9-89.1-26.9
		l-62.2,20.7l20.4-61c-18.9-26.3-29.9-58.6-29.9-93.5c0-88.8,72-160.8,160.8-160.8s160.8,72,160.8,160.8
		C364.1,283.7,292.1,355.7,203.3,355.7z"/>
	<path fill="#FFFFFF" d="M138.9,108.9c0,0-8.3,0.4-15.2,8.3c-6.9,8-14.5,21.8-13.1,38.1s11.6,43.9,35.9,69s37,37.7,66.4,49
		s45,17.4,64.6,5.8c20.2-11.4,21.7-21.6,22.9-34.8c0-7.2-0.7-5.8-6.9-9.1s-33-16-33-16s-8.3-5.4-12.7,1.5
		c-4.4,6.9-15.2,18.9-15.2,18.9s-2.5,3.6-9.8,0.7c-7.3-2.9-39.2-16-61.7-53.4c-3.8-6.4-0.7-10.5-0.7-10.5l12-14.2c0,0,3.9-3,0.4-12
		c-4.4-10.2-14.9-36.3-14.9-36.3s-1.5-5.1-8.3-5.1C138.9,108.9,138.9,108.9,138.9,108.9z"/>
</g>
</svg>
