<?xml version="1.0" encoding="utf-8"?>
<!-- Generator: Adobe Illustrator 18.1.1, SVG Export Plug-In . SVG Version: 6.00 Build 0)  -->
<svg version="1.1" id="Capa_1" xmlns="http://www.w3.org/2000/svg" xmlns:xlink="http://www.w3.org/1999/xlink" x="0px" y="0px"
	 viewBox="0 0 400 400" enable-background="new 0 0 400 400" xml:space="preserve">
<rect fill="none" width="400" height="400"/>
<g>
	<path fill="#7C7C7C" d="M202.9,2.3c-106.6,0-193,86.4-193,193c0,36.5,10.1,70.7,27.8,99.8L2.5,398l106.2-34.1
		c27.9,15.6,60,24.5,94.2,24.5c106.6,0,193-86.4,193-193S309.5,2.3,202.9,2.3z M203.1,356.9c-33.2,0-64.1-10-89.8-27.1l-62.6,20.8
		l20.6-61.5c-19-26.5-30.2-59.1-30.2-94.2c0-89.5,72.5-162,162-162s162,72.5,162,162S292.6,356.9,203.1,356.9z"/>
	<path fill="#7C7C7C" d="M138.2,108.2c0,0-8.4,0.4-15.4,8.4s-14.6,22-13.2,38.4c1.5,16.5,11.7,44.3,36.2,69.5s37.3,38,66.9,49.4
		s45.4,17.6,65.1,5.9c20.4-11.5,21.9-21.8,23-35.1c0-7.2-0.7-5.9-7-9.1c-6.2-3.3-33.3-16.1-33.3-16.1s-8.4-5.5-12.8,1.5
		c-4.4,7-15.4,19-15.4,19s-2.6,3.7-9.9,0.7c-7.3-2.9-39.5-16.1-62.2-53.8c-3.8-6.4-0.7-10.6-0.7-10.6l12.1-14.3c0,0,3.9-3,0.4-12.1
		c-4.4-10.2-15-36.6-15-36.6s-1.5-5.1-8.4-5.1C138.2,108.2,138.2,108.2,138.2,108.2z"/>
</g>
</svg>
