<?xml version="1.0" encoding="utf-8"?>
<!-- Generator: Adobe Illustrator 18.1.1, SVG Export Plug-In . SVG Version: 6.00 Build 0)  -->
<svg version="1.1" id="Capa_1" xmlns="http://www.w3.org/2000/svg" xmlns:xlink="http://www.w3.org/1999/xlink" x="0px" y="0px"
	 viewBox="0 0 400 400" enable-background="new 0 0 400 400" xml:space="preserve">
<rect fill="none" width="400" height="400"/>
<g>
	<g>
		<path fill="#FFFFFF" d="M387.9,134.3l-29.4-29.1c-8.7,8.7-19.3,13-31.7,13c-12.4,0-23-4.4-31.7-13c-8.7-8.7-13-19.3-13-31.7
			c0-12.4,4.4-23,13-31.7L266,12.7C260.3,6.9,253.2,4,244.9,4c-8.3,0-15.3,2.9-21.1,8.6L12.5,223.8c-5.7,5.8-8.6,12.8-8.6,21.1
			c0,8.3,2.9,15.3,8.6,21.1l29.1,29.4c8.7-8.7,19.3-13,31.7-13c12.4,0,23,4.3,31.7,13c8.7,8.7,13,19.3,13,31.7s-4.3,23-13,31.7
			l29.4,29.4c5.7,5.7,12.8,8.6,21.1,8.6c8.3,0,15.3-2.9,21.1-8.6l211.3-211.6c5.7-5.7,8.6-12.8,8.6-21.1
			C396.5,147.1,393.6,140,387.9,134.3z M324.7,180.9l-144,144c-2.8,2.8-6.3,4.2-10.5,4.2c-4.2,0-7.7-1.4-10.5-4.2l-84.4-84.3
			c-3-3-4.4-6.4-4.4-10.5c0-4,1.5-7.5,4.4-10.5l144-144c2.8-2.8,6.3-4.2,10.5-4.2c4.2,0,7.7,1.4,10.5,4.2l84.3,84.4
			c3,3,4.4,6.4,4.4,10.5C329.2,174.5,327.7,177.9,324.7,180.9z"/>
		<path fill="#FFFFFF" d="M229.9,96.8l73.6,73.6L170.3,303.7l-73.6-73.6L229.9,96.8z"/>
	</g>
</g>
</svg>
