<?xml version="1.0" encoding="utf-8"?>
<!-- Generator: Adobe Illustrator 18.1.1, SVG Export Plug-In . SVG Version: 6.00 Build 0)  -->
<svg version="1.1" id="Capa_1" xmlns="http://www.w3.org/2000/svg" xmlns:xlink="http://www.w3.org/1999/xlink" x="0px" y="0px"
	 viewBox="0 0 400 400" enable-background="new 0 0 400 400" xml:space="preserve">
<rect fill="none" width="400" height="400"/>
<path fill="#252525" d="M389.5,73.7C288.8,32.7,200.2,3.1,200.2,3.1S111.6,32.7,10.9,73.7c-3.6,1.5-6,5-5.9,8.9
	C7,260.4,93.6,366.7,200.2,395.1c106.6-28.3,193.2-134.7,195.3-312.4C395.5,78.8,393.1,75.2,389.5,73.7z M200.2,368.2
	C45.7,315.7,32.1,140.3,31,101.4c-0.1-4.6,2.6-8.8,6.8-10.7c69-29.9,140.7-53.7,158.3-59.5c2.7-0.9,5.5-0.9,8.2,0
	C222,37,293.7,60.9,362.7,90.7c4.2,1.8,6.9,6.1,6.8,10.7C368.3,140.3,354.7,315.7,200.2,368.2z"/>
<path fill="#252525" d="M350.6,104.9c-79.1-35.4-150.4-56.2-150.4-56.2s-71.3,20.8-150.4,56.2c0,0-4.5,185.2,150.4,245.6
	C355.1,290.1,350.6,104.9,350.6,104.9z M300.7,135L189.5,281.2c-3.1,4.1-9.2,4.5-12.8,0.9l-60-60.4c-3-3-3-8,0-11l26.6-26.9
	c3.3-3.3,8.7-3.3,11.9,0.1c9.3,9.8,26.7,28.1,26.7,27.3c0-0.9,62.3-80.8,80-103.6c2.6-3.4,7.4-4.1,10.9-1.6l26.1,18.2
	C302.5,126.7,303.2,131.5,300.7,135z"/>
</svg>
