<?xml version="1.0" encoding="utf-8"?>
<!-- Generator: Adobe Illustrator 18.1.1, SVG Export Plug-In . SVG Version: 6.00 Build 0)  -->
<svg version="1.1" id="Capa_1" xmlns="http://www.w3.org/2000/svg" xmlns:xlink="http://www.w3.org/1999/xlink" x="0px" y="0px"
	 viewBox="0 0 400 400" enable-background="new 0 0 400 400" xml:space="preserve">
<rect fill="none" width="400" height="400"/>
<g>
	<g>
		<path fill="#FFFFFF" d="M389.1,82.7C389.1,82.7,389.1,82.7,389.1,82.7L389.1,82.7h-25.9v-8.8c0.1-3.5-2.1-6.6-5.5-7.6
			c-17.9-4.7-36.4-7.1-55-7c-30.5,0-72.1,6.9-102.8,38.1c-30.5-31.6-72.4-38.1-102.8-38.1c-18.6,0-37,2.3-55,7
			c-3.4,1-5.6,4.1-5.5,7.6v8.8H10.9c-4.2,0-7.6,3.4-7.6,7.6v243.6c0,4.2,3.4,7.6,7.6,7.6c1.3,0,2.6-0.3,3.7-1
			c0.8-0.4,77-42.1,183.5-15.3h1.1h0.7c0.6,0.1,1.2,0.1,1.8,0c106.8-27.1,183,14.6,183.5,15.3c2.4,1.4,5.3,1.4,7.6,0
			c2.3-1.4,3.8-3.9,3.8-6.6V90.4C396.8,86.2,393.4,82.7,389.1,82.7z M18.6,321.8V98h18.2v191.3c0,4.2,3.3,7.7,7.5,7.7
			c0.4,0,0.8,0,1.2-0.1c15.8-2.4,31.7-3.7,47.7-3.8c22.1-0.4,44.1,2.9,65.1,9.8C110.9,297.2,62.8,303.7,18.6,321.8z M93.2,277.9
			c-13.9,0-27.7,0.9-41.5,2.7V79.9c14.8-3.3,30-5,45.2-5c28.5,0,67.9,6.6,95.2,37.4l0.2,190C176.5,291.9,145.6,277.9,93.2,277.9z
			 M207.6,112.3c27.3-30.5,66.7-37.4,95.2-37.4c15.2,0,30.4,1.7,45.2,5v200.6c-13.7-1.8-27.5-2.7-41.3-2.7c-52,0-83.1,14-99.1,24.3
			V112.3z M381.4,321.8c-44.3-18.1-92.6-24.6-140.1-18.8c21.1-6.9,43.2-10.2,65.4-9.8c16.1,0.1,32.1,1.3,48,3.7
			c4.2,0.6,8.1-2.2,8.7-6.4c0.1-0.4,0.1-0.8,0.1-1.2V98h18.2L381.4,321.8z"/>
	</g>
</g>
</svg>
