<?xml version="1.0" encoding="utf-8"?>
<!-- Generator: Adobe Illustrator 18.1.1, SVG Export Plug-In . SVG Version: 6.00 Build 0)  -->
<svg version="1.1" id="Capa_1" xmlns="http://www.w3.org/2000/svg" xmlns:xlink="http://www.w3.org/1999/xlink" x="0px" y="0px"
	 viewBox="0 0 443.9 415" enable-background="new 0 0 443.9 415" xml:space="preserve">
<rect x="0" y="0" fill="none" width="443.9" height="415"/>
<g>
	<g>
		<path fill="#C9528C" d="M436.1,36.3h-33.3l21.8-21.8h11.5c4,0,7.3-3.3,7.3-7.3S440.1,0,436.1,0H7.8c-4,0-7.3,3.3-7.3,7.3
			s3.3,7.3,7.3,7.3h33.3L19.3,36.3H7.8c-4,0-7.3,3.3-7.3,7.3s3.3,7.3,7.3,7.3h22.1l-0.3,27.7L16.4,92.4c-12,12.6-11.6,32.6,1,44.7
			L47,165.4c1.4,1.3,3.1,2,5,2h0.2c0.9,0,1.7-0.2,2.5-0.6l80.9,116.3L95.3,404.2c-1.3,3.8,0.8,7.9,4.6,9.2c3.8,1.3,7.9-0.8,9.2-4.6
			L146,298l22.8,32.8c2.3,3.3,6.8,4.1,10.1,1.8c3.3-2.3,4.1-6.8,1.8-10.1l-29-41.7l44.4-133.4c0.2-0.7,0.3-1.5,0.3-2.3h43.7
			c0,0.8,0.1,1.7,0.4,2.5l31.6,87.4l-30.7,43.9c-2.4,3.2-1.7,7.8,1.5,10.2c3.2,2.4,7.8,1.7,10.2-1.5c0.1-0.1,0.2-0.2,0.3-0.4
			l24.8-35.5L334.9,409c1,2.9,3.8,4.8,6.8,4.8c0.8,0,1.7-0.1,2.5-0.4c3.8-1.4,5.7-5.5,4.4-9.3l-60.3-166.8l64.4-92l46.2,15.8
			l-49.7,200.2c-1,3.9,1.4,7.8,5.3,8.8l0,0c0.6,0.1,1.2,0.2,1.8,0.2c3.3,0,6.2-2.3,7-5.5l49.4-199.1c0.5,0.1,1,0.2,1.5,0.3
			c3.1,0,5.9-2,6.9-4.9l13.3-38.8c5.6-16.5-3.2-34.5-19.7-40.2l-0.4-0.1V50.8h21.8c4,0,7.3-3.3,7.3-7.3S440.1,36.3,436.1,36.3z
			 M404.1,14.5l-18.8,18.8l-18.8-18.8L404.1,14.5z M367.8,36.3h-37.5L349,17.5L367.8,36.3z M331.5,14.5l-18.8,18.8l-18.8-18.8
			L331.5,14.5z M295.2,36.3h-37.5l18.8-18.8L295.2,36.3z M258.9,14.5l-18.8,18.8l-18.8-18.8L258.9,14.5z M222.6,36.3h-37.5
			l18.8-18.8L222.6,36.3z M186.3,14.5l-18.8,18.8l-18.8-18.8L186.3,14.5z M150,36.3h-37.5l18.8-18.8L150,36.3z M113.7,14.5
			L94.9,33.3L76.2,14.5H113.7z M58.6,17.5l18.8,18.8H39.9L58.6,17.5z M51.8,149.9l-24.4-23.3c-6.8-6.5-7.1-17.4-0.6-24.2l16.5-17.2
			c3.1-3.3,7.4-5.2,11.9-5.3h0.4c4.4,0,8.6,1.7,11.8,4.7l24.4,23.3L51.8,149.9z M141.4,266l-76-109.3l30.1-31.6l75.4,48
			c0.4,0.2,0.8,0.4,1.3,0.6L141.4,266z M181.7,145.1l-4.8,14.5l-71.1-45.2l1.7-1.8c2.8-2.9,2.7-7.5-0.2-10.3l0,0L77.6,74
			c-6-5.9-14.2-9-22.6-8.7c-3.7,0.1-7.3,0.9-10.8,2.2l0.2-16.8h166.7v14.5h-4.7c-17.5,0-31.6,14.2-31.6,31.6v41
			C174.8,141.8,177.8,144.9,181.7,145.1z M247.4,130.7h-58.1V97c0-9.4,7.7-17.1,17.1-17.1h23.9c9.4,0,17.1,7.7,17.1,17.1V130.7z
			 M352,94l-13.3,38.8c-0.6,1.8-0.5,3.8,0.3,5.5c0.1,0.2,0.3,0.3,0.4,0.6l-57.2,81.7l-27.2-75.5c3.8-0.2,6.8-3.3,6.8-7.2V97
			c0-17.5-14.2-31.6-31.6-31.6h-4.7V50.8h174.2v26.1l-7.7-2.6C375.6,68.7,357.7,77.5,352,94z M420.7,117.5l-10.9,31.9l-55-18.8
			l10.9-31.9c3-9,12.8-13.7,21.7-10.7c0,0,0,0,0.1,0l22.6,7.7C419,98.8,423.8,108.5,420.7,117.5z"/>
	</g>
</g>
</svg>
