<?xml version="1.0" encoding="utf-8"?>
<!-- Generator: Adobe Illustrator 18.1.1, SVG Export Plug-In . SVG Version: 6.00 Build 0)  -->
<svg version="1.1" id="Capa_1" xmlns="http://www.w3.org/2000/svg" xmlns:xlink="http://www.w3.org/1999/xlink" x="0px" y="0px"
	 viewBox="0 0 318.4 468.4" enable-background="new 0 0 318.4 468.4" xml:space="preserve">
<g>
	<defs>
		<rect id="SVGID_1_" x="-10.7" y="-15" width="329.1" height="483.4"/>
	</defs>
	<clipPath id="SVGID_2_">
		<use xlink:href="#SVGID_1_"  overflow="visible"/>
	</clipPath>
	<g opacity="0.7" clip-path="url(#SVGID_2_)">
		<g>
			<g>
				<path fill="#0BB7D5" d="M105.5,232.8c0.6,46.7,23.4,90.5,61.4,117.9v93.8c0,1.1,0.2,2.1,0.7,3.1v0.7c0.1,0.4,0.2,0.7,0.5,1.1
					l32.4,48.3c1.7,2.5,4.6,4,7.6,4h53.5c2.9,0,5.9-1.5,7.6-4l32.4-48.3c0.1-0.4,0.3-0.7,0.5-1.1v-0.7c0.4-1,0.7-2,0.7-3.1v-93.8
					c38-27.4,60.7-71.2,61.4-117.9c-0.2-71.8-58.3-129.9-129.9-129.9C162.8,103.6,105.3,161.4,105.5,232.8z M192,453.8h83.9
					l-20,29.7h-43.7L192,453.8z M184.1,435.4l0.2-24.4h99.9v24.4H184.1z M122.7,232.6c1.6-59,49.1-106.4,108.1-108.1
					c61.5-1.8,112.9,46.6,114.7,108.1c-0.7,42.3-22.1,81.7-57.3,105.3c-2.6,1.8-4.1,4.7-4.1,7.8v47.2h-100v-46.7
					c0-3.1-1.5-6-4.1-7.8v-0.2C144.6,314.5,123.2,275,122.7,232.6z"/>
			</g>
		</g>
		<g>
			<g>
				<path fill="#0BB7D5" d="M230.5,144.7c5.1,0,9.2,4.1,9.2,9.2s-4.1,9.2-9.2,9.2c-38.2,0-69.3,31-69.3,69.3c0,5.1-4.1,9.2-9.2,9.2
					c-5.1,0-9.2-4.1-9.2-9.2C142.8,184,182.1,144.7,230.5,144.7z"/>
			</g>
		</g>
		<g>
			<g>
				<path fill="#0BB7D5" d="M72.3,69.4c3.5-3,8.5-3,12,0l47,47c3.6,3.6,3.6,9.4,0,13c-1.7,1.7-4.1,2.8-6.6,2.8l0.2-0.2
					c-2.5,0-4.7-1-6.5-2.6l-47-47C67.9,78.6,68.4,72.8,72.3,69.4z"/>
			</g>
		</g>
		<g>
			<g>
				<path fill="#0BB7D5" d="M337,116.5l47-47c3.8-3.3,9.6-2.9,13,1c3,3.5,3,8.5,0,12l-47,47c-3.8,3.3-9.6,2.9-13-1
					C334.1,125.1,334.1,119.9,337,116.5z"/>
			</g>
		</g>
		<g>
			<g>
				<path fill="#0BB7D5" d="M234.1,2.7c5.1,0,9.2,4.1,9.2,9.2v66.5c0.2,5.1-3.8,9.4-8.9,9.5c-0.2,0-0.2,0-0.2,0
					c-5.1,0-9.2-4.1-9.2-9.2V12C224.9,6.9,229.1,2.7,234.1,2.7z"/>
			</g>
		</g>
		<g>
			<g>
				<path fill="#0BB7D5" d="M2.8,199.1c0-5.1,4.1-9.2,9.2-9.2h66.5c5.1-0.2,9.4,3.8,9.5,8.9c0,0.2,0,0.2,0,0.2
					c0,5.1-4.1,9.2-9.2,9.2H12C6.9,208.3,2.8,204.1,2.8,199.1z"/>
			</g>
		</g>
		<g>
			<g>
				<path fill="#0BB7D5" d="M381.8,199.1c0-5.1,4.1-9.2,9.2-9.2h66.5c5.1-0.2,9.4,3.8,9.5,8.9c0,0.2,0,0.2,0,0.2
					c0,5.1-4.1,9.2-9.2,9.2H391C386,208.3,381.8,204.1,381.8,199.1z"/>
			</g>
		</g>
	</g>
</g>
<rect x="-0.5" y="0" fill="none" width="318.4" height="468.4"/>
</svg>
