<?xml version="1.0" encoding="utf-8"?>
<!-- Generator: Adobe Illustrator 18.1.1, SVG Export Plug-In . SVG Version: 6.00 Build 0)  -->
<svg version="1.1" id="Capa_1" xmlns="http://www.w3.org/2000/svg" xmlns:xlink="http://www.w3.org/1999/xlink" x="0px" y="0px"
	 viewBox="0 0 400 400" enable-background="new 0 0 400 400" xml:space="preserve">
<rect fill="none" width="400" height="400"/>
<g>
	<g>
		<path fill="#252525" d="M309.5,184.9L134.9,10.3c-4-4-9.4-6.3-15.2-6.3c-5.7,0-11.1,2.2-15.2,6.3L91.6,23.1
			c-8.4,8.4-8.4,22,0,30.4l146.6,146.6L91.5,346.9c-4,4-6.3,9.4-6.3,15.2c0,5.8,2.2,11.1,6.3,15.2l12.9,12.9c4,4,9.4,6.3,15.2,6.3
			c5.7,0,11.1-2.2,15.2-6.3l174.8-174.8c4-4.1,6.3-9.5,6.3-15.2C315.8,194.4,313.5,189,309.5,184.9z"/>
	</g>
</g>
</svg>
