<?xml version="1.0" encoding="utf-8"?>
<!-- Generator: Adobe Illustrator 18.1.1, SVG Export Plug-In . SVG Version: 6.00 Build 0)  -->
<svg version="1.1" id="Capa_1" xmlns="http://www.w3.org/2000/svg" xmlns:xlink="http://www.w3.org/1999/xlink" x="0px" y="0px"
	 viewBox="0 0 400 400" enable-background="new 0 0 400 400" xml:space="preserve">
<rect fill="none" width="400" height="400"/>
<g>
	<g>
		<g>
			<path fill="#6B6B6B" d="M200.2,150.9L200.2,150.9c3.3,0,6,2.7,6,6l0,134.3c0,3.3-2.7,6-6,6l0,0c-3.3,0-6-2.7-6-6l0-134.3
				C194.3,153.6,196.9,150.9,200.2,150.9z"/>
			<path fill="#6B6B6B" d="M200.2,150.9c1.5,0,3,0.6,4.2,1.7l51.4,51.4c2.3,2.3,2.3,6.1,0,8.4c-2.3,2.3-6.1,2.3-8.4,0l-47.1-47.1
				l-47.1,47.1c-2.3,2.3-6.1,2.3-8.4,0c-2.3-2.3-2.3-6.1,0-8.4l51.4-51.4C197.2,151.5,198.7,150.9,200.2,150.9z"/>
		</g>
		<g>
			<path fill="#6B6B6B" d="M330.4,398.5H70.1c-16.4,0-29.8-13.3-29.8-29.8V31.8C40.3,15.3,53.7,2,70.1,2h189.1c3.3,0,6,2.7,6,6
				s-2.7,6-6,6H70.1c-9.8,0-17.9,8-17.9,17.9v336.9c0,9.8,8,17.9,17.9,17.9h260.4c9.8,0,17.9-8,17.9-17.9v-263c0-3.3,2.7-6,6-6
				s6,2.7,6,6v263.1C360.2,385.1,346.8,398.5,330.4,398.5z"/>
			<path fill="#6B6B6B" d="M354.2,111.6h-95.1c-3.3,0-6-2.7-6-6V10.5c0-3.3,2.7-6,6-6c3.3,0,6,2.7,6,6v89.1h89.1c3.3,0,6,2.7,6,6
				S357.5,111.6,354.2,111.6z"/>
			<path fill="#6B6B6B" d="M354.2,111.6c-1.5,0-3.1-0.6-4.3-1.8l-95.1-97.7c-2.3-2.3-2.2-6.1,0.1-8.4c2.3-2.3,6.1-2.2,8.4,0.1
				l95.1,97.7c2.3,2.3,2.2,6.1-0.1,8.4C357.2,111,355.7,111.6,354.2,111.6z"/>
		</g>
	</g>
</g>
</svg>
