<?xml version="1.0" encoding="utf-8"?>
<!-- Generator: Adobe Illustrator 18.1.1, SVG Export Plug-In . SVG Version: 6.00 Build 0)  -->
<svg version="1.1" id="Capa_1" xmlns="http://www.w3.org/2000/svg" xmlns:xlink="http://www.w3.org/1999/xlink" x="0px" y="0px"
	 viewBox="0 0 400 400" enable-background="new 0 0 400 400" xml:space="preserve">
<rect fill="none" width="400" height="400"/>
<g>
	<g>
		<path fill="#7C7C7C" d="M200.1,3.5C91.9,3.5,3.8,91.6,3.8,199.8s88.1,196.3,196.3,196.3S396.4,308,396.4,199.8
			S308.3,3.5,200.1,3.5z M136.3,41.5c-11.8,16.1-20.6,35.2-26.9,53.9c-11.4-4.1-22-9-31.5-14.6C94.3,64,114.1,50.5,136.3,41.5z
			 M61.2,100.7c12.2,7.6,26.1,14.1,41.1,19.4c-5,21-7.9,43.6-8.7,66.9H29.9C32.3,155,43.5,125.4,61.2,100.7z M61.2,299
			c-17.7-24.7-29-54.3-31.3-86.3h63.8c0.8,23.4,3.8,46,8.7,66.9C87.3,284.8,73.5,291.3,61.2,299z M77.8,318.8
			c9.5-5.6,20.1-10.5,31.5-14.6c6.3,18.7,15.1,37.8,26.9,53.9C114.1,349.1,94.3,335.7,77.8,318.8z M187.3,368.1
			c-26.4-9.7-44.3-44.5-53.4-71.2c16.7-4,34.7-6.4,53.4-7.2V368.1z M187.3,264.1c-21,0.8-41.4,3.6-60.4,8.2
			c-4.3-18.6-6.9-38.8-7.7-59.7h68L187.3,264.1L187.3,264.1z M187.3,187h-68c0.8-20.9,3.4-41,7.7-59.7c19,4.6,39.3,7.4,60.4,8.2V187
			z M187.3,109.9c-18.6-0.8-36.6-3.2-53.4-7.2c9.1-26.8,26.9-61.5,53.4-71.2V109.9z M339,100.7c17.7,24.7,29,54.3,31.3,86.3h-63.8
			c-0.8-23.4-3.8-46-8.7-66.9C312.9,114.8,326.7,108.3,339,100.7z M322.3,80.8c-9.5,5.6-20.1,10.5-31.5,14.6
			c-6.3-18.7-15.1-37.8-26.9-53.9C286.1,50.5,305.9,64,322.3,80.8z M212.9,31.5c26.4,9.7,44.3,44.5,53.4,71.2
			c-16.7,4-34.7,6.4-53.4,7.2L212.9,31.5L212.9,31.5z M212.9,135.6c21-0.8,41.4-3.6,60.4-8.2c4.3,18.6,6.9,38.8,7.7,59.7h-68V135.6z
			 M212.9,212.5h68c-0.8,20.9-3.4,41.1-7.7,59.8c-19-4.6-39.3-7.4-60.4-8.2V212.5z M212.9,368.1v-78.4c18.6,0.8,36.6,3.2,53.4,7.2
			C257.2,323.7,239.3,358.4,212.9,368.1z M263.9,358.1c11.8-16.1,20.6-35.2,26.9-53.9c11.4,4.1,22,9,31.5,14.6
			C305.9,335.7,286.1,349.1,263.9,358.1z M339,299c-12.2-7.6-26.1-14.1-41.1-19.4c5-21,7.9-43.6,8.7-67h63.8
			C367.9,244.6,356.6,274.2,339,299z"/>
	</g>
</g>
</svg>
