<?xml version="1.0" encoding="utf-8"?>
<!-- Generator: Adobe Illustrator 18.1.1, SVG Export Plug-In . SVG Version: 6.00 Build 0)  -->
<svg version="1.1" id="Capa_1" xmlns="http://www.w3.org/2000/svg" xmlns:xlink="http://www.w3.org/1999/xlink" x="0px" y="0px"
	 viewBox="0 0 400 400" enable-background="new 0 0 400 400" xml:space="preserve">
<rect fill="none" width="400" height="400"/>
<g>
	<g>
		<path fill="#7C7C7C" d="M41.2,140.6c5,3.5,19.9,13.9,44.9,31.2c25,17.3,44.1,30.6,57.4,40c1.5,1,4.6,3.3,9.3,6.7
			c4.7,3.4,8.7,6.2,11.8,8.3c3.1,2.1,6.9,4.5,11.4,7.1c4.5,2.6,8.7,4.6,12.6,5.9c3.9,1.3,7.6,2,11,2h0.2h0.2c3.4,0,7-0.7,11-2
			c3.9-1.3,8.1-3.3,12.6-5.9c4.5-2.6,8.3-5,11.4-7.1c3.1-2.1,7.1-4.9,11.8-8.3c4.7-3.4,7.9-5.7,9.3-6.7
			c13.4-9.3,47.6-33.1,102.6-71.2c10.7-7.4,19.6-16.4,26.7-27c7.2-10.5,10.7-21.5,10.7-33.1c0-9.6-3.5-17.9-10.4-24.8
			c-6.9-6.9-15.2-10.3-24.7-10.3H38.5c-11.2,0-19.9,3.8-26,11.4C6.5,64.5,3.5,74,3.5,85.4c0,9.2,4,19.2,12.1,29.9
			C23.6,126,32.1,134.5,41.2,140.6z"/>
		<path fill="#7C7C7C" d="M374.3,164c-47.9,32.4-84.3,57.6-109.1,75.6c-8.3,6.1-15.1,10.9-20.3,14.4c-5.2,3.4-12.1,6.9-20.7,10.5
			c-8.6,3.6-16.7,5.4-24.1,5.4h-0.2h-0.2c-7.5,0-15.5-1.8-24.1-5.4c-8.6-3.6-15.5-7.1-20.7-10.5c-5.2-3.4-11.9-8.2-20.3-14.4
			c-19.7-14.5-56-39.7-108.9-75.6c-8.3-5.5-15.7-11.9-22.1-19.1v174c0,9.6,3.4,17.9,10.3,24.8c6.9,6.9,15.1,10.3,24.8,10.3h322.6
			c9.6,0,17.9-3.4,24.8-10.3c6.9-6.9,10.3-15.1,10.3-24.8V145C389.9,152,382.6,158.3,374.3,164z"/>
	</g>
</g>
</svg>
