<?xml version="1.0" encoding="utf-8"?>
<!-- Generator: Adobe Illustrator 18.1.1, SVG Export Plug-In . SVG Version: 6.00 Build 0)  -->
<svg version="1.1" id="Capa_1" xmlns="http://www.w3.org/2000/svg" xmlns:xlink="http://www.w3.org/1999/xlink" x="0px" y="0px"
	 viewBox="0 0 400 400" enable-background="new 0 0 400 400" xml:space="preserve">
<rect fill="none" width="400" height="400"/>
<g>
	<g>
		<path fill="#7C7C7C" d="M396.2,313c0.8,6.3-1.1,11.9-5.8,16.5l-55,54.6c-2.5,2.8-5.7,5.1-9.7,7c-4,1.9-7.9,3.2-11.8,3.7
			c-0.3,0-1.1,0.1-2.5,0.2c-1.4,0.1-3.2,0.2-5.4,0.2c-5.2,0-13.7-0.9-25.4-2.7c-11.7-1.8-26-6.2-43-13.2c-17-7-36.2-17.6-57.7-31.6
			c-21.5-14.1-44.4-33.3-68.6-57.9c-19.3-19-35.3-37.2-48-54.6c-12.7-17.4-22.9-33.4-30.6-48.2C25.1,172.3,19.3,159,15.4,147
			S9,124.7,7.6,116s-1.9-15.5-1.7-20.5s0.4-7.7,0.4-8.3c0.6-3.9,1.8-7.8,3.7-11.8s4.3-7.2,7-9.7l55-55C75.9,6.9,80.3,5,85.3,5
			c3.6,0,6.8,1,9.5,3.1s5.1,4.6,7,7.6l44.2,83.9c2.5,4.4,3.2,9.2,2.1,14.5c-1.1,5.2-3.4,9.6-7,13.2l-20.3,20.3
			c-0.6,0.6-1,1.4-1.4,2.7c-0.4,1.2-0.6,2.3-0.6,3.1c1.1,5.8,3.6,12.4,7.4,19.8c3.3,6.6,8.4,14.7,15.3,24.2
			c6.9,9.5,16.7,20.5,29.4,32.9c12.4,12.7,23.4,22.5,33.1,29.6c9.6,7,17.7,12.2,24.2,15.5c6.5,3.3,11.4,5.3,14.9,6l5.2,1
			c0.6,0,1.4-0.2,2.7-0.6c1.2-0.4,2.1-0.9,2.7-1.4l23.6-24c5-4.4,10.7-6.6,17.4-6.6c4.7,0,8.4,0.8,11.2,2.5h0.4l79.8,47.1
			C391.6,302.9,395.1,307.5,396.2,313z"/>
	</g>
</g>
</svg>
